<svg xmlns="http://www.w3.org/2000/svg" viewBox="0 0 500 500"><g id="freepik--Virus--inject-11"><path d="M190.79,130.82C189,112.39,171.54,96.89,153,97.25l-11.46,2c-17.5,6.07-28.5,26.65-23.83,44.56s24.33,30.5,42.55,27.25S192.61,149.24,190.79,130.82Z" style="fill:#FF725E"></path><g style="opacity:0.8"><path d="M190.79,130.82C189,112.39,171.54,96.89,153,97.25l-11.46,2c-17.5,6.07-28.5,26.65-23.83,44.56s24.33,30.5,42.55,27.25S192.61,149.24,190.79,130.82Z" style="fill:#fff"></path></g><ellipse cx="139.61" cy="145.91" rx="10.87" ry="11.24" style="fill:#FF725E"></ellipse><ellipse cx="139.61" cy="145.91" rx="10.87" ry="11.24" style="fill:#fff;opacity:0.6000000000000001"></ellipse><path d="M417.61,92.69c-23.61-23-53-28.07-85.86-30.78S254.85,77.84,235,110.09c-11.51,18.67-18.58,44-33.61,60C179.9,192.87,156,198.58,121.89,201c-45.73,3.26-69,25.21-80.68,68.77C28.7,316.55,47,370.21,98.14,408.29c36.63,27.29,82.14,39.85,127.69,36.45C299.63,439.25,435.1,405.3,461,229.5,470.85,162.27,451.65,125.87,417.61,92.69Z" style="fill:#FF725E"></path><g style="opacity:0.8"><path d="M417.61,92.69c-23.61-23-53-28.07-85.86-30.78S254.85,77.84,235,110.09c-11.51,18.67-18.58,44-33.61,60C179.9,192.87,156,198.58,121.89,201c-45.73,3.26-69,25.21-80.68,68.77C28.7,316.55,47,370.21,98.14,408.29c36.63,27.29,82.14,39.85,127.69,36.45C299.63,439.25,435.1,405.3,461,229.5,470.85,162.27,451.65,125.87,417.61,92.69Z" style="fill:#fff"></path></g><ellipse cx="335.57" cy="338.99" rx="18.44" ry="19.07" style="fill:#FF725E"></ellipse><ellipse cx="335.57" cy="338.99" rx="18.44" ry="19.07" style="fill:#fff;opacity:0.6000000000000001"></ellipse><ellipse cx="267.69" cy="156.57" rx="18.44" ry="19.07" style="fill:#FF725E"></ellipse><ellipse cx="267.69" cy="156.57" rx="18.44" ry="19.07" style="fill:#fff;opacity:0.6000000000000001"></ellipse><ellipse cx="421.69" cy="219.36" rx="9.22" ry="9.54" style="fill:#FF725E"></ellipse><ellipse cx="421.69" cy="219.36" rx="9.22" ry="9.54" style="fill:#fff;opacity:0.6000000000000001"></ellipse><ellipse cx="87.77" cy="349.97" rx="18.44" ry="19.07" style="fill:#FF725E"></ellipse><ellipse cx="87.77" cy="349.97" rx="18.44" ry="19.07" style="fill:#fff;opacity:0.6000000000000001"></ellipse><path d="M317.82,400a3.82,3.82,0,1,1-3.82-3.95A3.89,3.89,0,0,1,317.82,400Z" style="fill:#FF725E"></path><path d="M317.82,400a3.82,3.82,0,1,1-3.82-3.95A3.89,3.89,0,0,1,317.82,400Z" style="fill:#fff;opacity:0.6000000000000001"></path><path d="M399.56,313.65a3.82,3.82,0,1,1-3.82-3.95A3.89,3.89,0,0,1,399.56,313.65Z" style="fill:#FF725E"></path><path d="M399.56,313.65a3.82,3.82,0,1,1-3.82-3.95A3.89,3.89,0,0,1,399.56,313.65Z" style="fill:#fff;opacity:0.6000000000000001"></path><path d="M421.33,177.49a3.82,3.82,0,1,1-3.82-4A3.89,3.89,0,0,1,421.33,177.49Z" style="fill:#FF725E"></path><path d="M421.33,177.49a3.82,3.82,0,1,1-3.82-4A3.89,3.89,0,0,1,421.33,177.49Z" style="fill:#fff;opacity:0.6000000000000001"></path><path d="M271.51,106.8a3.82,3.82,0,1,1-3.82-4A3.89,3.89,0,0,1,271.51,106.8Z" style="fill:#FF725E"></path><path d="M271.51,106.8a3.82,3.82,0,1,1-3.82-4A3.89,3.89,0,0,1,271.51,106.8Z" style="fill:#fff;opacity:0.6000000000000001"></path><ellipse cx="158.4" cy="110.18" rx="3.82" ry="3.95" style="fill:#FF725E"></ellipse><ellipse cx="158.4" cy="110.18" rx="3.82" ry="3.95" style="fill:#fff;opacity:0.6000000000000001"></ellipse><circle cx="416.28" cy="267.23" r="9.62" style="fill:#FF725E"></circle><g style="opacity:0.2"><path d="M422.59,270.82c-.44-.23-.35-1.21-.47-2.52,0-.16,0-.34-.06-.51s-.06-.36-.08-.54c-.08-.37-.16-.75-.28-1.14a7.4,7.4,0,0,0-2.95-4.05,8.94,8.94,0,0,0-1-.61c-.16-.09-.32-.18-.48-.25l-.47-.21c-1.21-.53-2.17-.74-2.26-1.23a.45.45,0,0,1,.12-.36,1.54,1.54,0,0,1,.49-.38,4.46,4.46,0,0,1,2.06-.45c.23,0,.46,0,.71,0l.76.12a8.16,8.16,0,0,1,1.62.55,7.67,7.67,0,0,1,1.63,1,8,8,0,0,1,1.45,1.51,7.91,7.91,0,0,1,1,1.85,7.66,7.66,0,0,1,.46,1.86,7.56,7.56,0,0,1,0,1.71c0,.27-.07.52-.12.76a6.08,6.08,0,0,1-.19.68,4.47,4.47,0,0,1-1.06,1.82,1.46,1.46,0,0,1-.51.35A.42.42,0,0,1,422.59,270.82Z" style="fill:#fff"></path></g><path d="M410.87,254.51c.11.17-.24.59-.78.93a3.66,3.66,0,0,1-.53.26c-.32.13-.58.14-.65,0s.24-.59.78-.93S410.76,254.33,410.87,254.51Z" style="fill:#FF725E"></path><path d="M410.83,259.43a16.93,16.93,0,0,0-1.24-3.77l1-.59s1.72,2.64,2.63,3.12A17.63,17.63,0,0,0,410.83,259.43Z" style="fill:#FF725E"></path><path d="M409.61,255.69a3.78,3.78,0,0,0,1-.62l.39.58a4,4,0,0,1-1.24.26Z" style="opacity:0.30000000000000004"></path><path d="M406.18,260.12c.18.09.09.63-.2,1.19a4.35,4.35,0,0,1-.32.5c-.22.27-.43.41-.55.35s-.09-.63.2-1.2S406,260,406.18,260.12Z" style="fill:#FF725E"></path><path d="M407.72,263.34a9.41,9.41,0,0,0-2.06-1.58l.55-1a6.09,6.09,0,0,0,2.52.81A12.47,12.47,0,0,0,407.72,263.34Z" style="fill:#FF725E"></path><path d="M405.69,261.77a2.53,2.53,0,0,0,.52-1,5.77,5.77,0,0,0,.61.31,3.76,3.76,0,0,1-.92.84Z" style="opacity:0.30000000000000004"></path><path d="M402.75,265.66c.21,0,.39.51.41,1.14a3.49,3.49,0,0,1,0,.59c-.05.34-.16.57-.3.58s-.39-.51-.41-1.14S402.54,265.67,402.75,265.66Z" style="fill:#FF725E"></path><path d="M407,268.17a16.92,16.92,0,0,0-3.88-.82l0-1.15s3.15-.16,4-.7A17.39,17.39,0,0,0,407,268.17Z" style="fill:#FF725E"></path><path d="M403.13,267.35a3.67,3.67,0,0,0-.05-1.15l.7-.05a3.6,3.6,0,0,1-.4,1.2Z" style="opacity:0.30000000000000004"></path><path d="M405.09,272.45c.18-.11.59.24.93.78a2.41,2.41,0,0,1,.27.53c.13.32.15.57,0,.65s-.59-.24-.93-.78S404.92,272.56,405.09,272.45Z" style="fill:#FF725E"></path><path d="M408.65,272.74a9.36,9.36,0,0,0-2.4,1l-.59-1a6.13,6.13,0,0,0,2-1.78A13.25,13.25,0,0,0,408.65,272.74Z" style="fill:#FF725E"></path><path d="M406.27,273.71a2.51,2.51,0,0,0-.61-1l.57-.38a3.81,3.81,0,0,1,.26,1.22Z" style="opacity:0.30000000000000004"></path><path d="M410.35,279.57c0-.2.6-.23,1.21-.07a3.33,3.33,0,0,1,.56.19c.31.15.5.32.47.45s-.6.24-1.21.08S410.3,279.77,410.35,279.57Z" style="fill:#FF725E"></path><path d="M413.94,276.2a17.11,17.11,0,0,0-1.87,3.5l-1.1-.3s.71-3.07.43-4A17.64,17.64,0,0,0,413.94,276.2Z" style="fill:#FF725E"></path><path d="M412.08,279.67a3.72,3.72,0,0,0-1.11-.27c0-.21.09-.44.14-.68a3.62,3.62,0,0,1,1,.71Z" style="opacity:0.30000000000000004"></path><path d="M417.84,279.44c0-.21.45-.46,1.07-.57a3.27,3.27,0,0,1,.59-.05c.35,0,.59.08.62.22s-.45.46-1.08.57S417.88,279.64,417.84,279.44Z" style="fill:#FF725E"></path><path d="M419.45,276.25a9.47,9.47,0,0,0,0,2.6l-1.13.18a6.24,6.24,0,0,0-.9-2.5A12.38,12.38,0,0,0,419.45,276.25Z" style="fill:#FF725E"></path><path d="M419.45,278.82a2.45,2.45,0,0,0-1.12.21c0-.21-.08-.44-.13-.68a3.59,3.59,0,0,1,1.22.22Z" style="opacity:0.30000000000000004"></path><path d="M426,276.87c-.16-.13,0-.64.44-1.13a2.74,2.74,0,0,1,.41-.42c.27-.22.5-.32.61-.24s0,.64-.44,1.13S426.13,277,426,276.87Z" style="fill:#FF725E"></path><path d="M424.42,272.2a17.1,17.1,0,0,0,2.38,3.17l-.73.87s-2.48-1.93-3.5-2.1A17.49,17.49,0,0,0,424.42,272.2Z" style="fill:#FF725E"></path><path d="M426.78,275.35a3.59,3.59,0,0,0-.71.89l-.56-.42a3.72,3.72,0,0,1,1.09-.64Z" style="opacity:0.30000000000000004"></path><path d="M412.16,268.62c0,.74-.41,1.35-.91,1.35s-.91-.61-.91-1.35.41-1.35.91-1.35S412.16,267.87,412.16,268.62Z" style="opacity:0.30000000000000004"></path><path d="M411.82,267.85c0,.75-.41,1.35-.91,1.35s-.91-.6-.91-1.35.41-1.35.91-1.35S411.82,267.11,411.82,267.85Z" style="fill:#FF725E"></path><path d="M411.82,267.85c0,.75-.41,1.35-.91,1.35s-.91-.6-.91-1.35.41-1.35.91-1.35S411.82,267.11,411.82,267.85Z" style="fill:#fff;opacity:0.2"></path><path d="M411.79,260.86c.66-.34,1.38-.27,1.62.17s-.11,1.09-.77,1.44-1.38.27-1.62-.17S411.13,261.21,411.79,260.86Z" style="opacity:0.30000000000000004"></path><path d="M411.39,260.16c.66-.35,1.38-.28,1.62.17s-.11,1.08-.77,1.43-1.38.27-1.62-.17S410.73,260.51,411.39,260.16Z" style="fill:#FF725E"></path><path d="M411.39,260.16c.66-.35,1.38-.28,1.62.17s-.11,1.08-.77,1.43-1.38.27-1.62-.17S410.73,260.51,411.39,260.16Z" style="fill:#fff;opacity:0.2"></path><path d="M414.83,272.67a.89.89,0,1,1-.89-.89A.89.89,0,0,1,414.83,272.67Z" style="opacity:0.30000000000000004"></path><path d="M414.83,272.19a.89.89,0,1,1-.89-.88A.89.89,0,0,1,414.83,272.19Z" style="fill:#FF725E"></path><path d="M414.83,272.19a.89.89,0,1,1-.89-.88A.89.89,0,0,1,414.83,272.19Z" style="fill:#fff;opacity:0.30000000000000004"></path><path d="M420.72,264.78a1.09,1.09,0,1,1-.06-1.55A1.1,1.1,0,0,1,420.72,264.78Z" style="opacity:0.30000000000000004"></path><path d="M421.12,264.35a1.09,1.09,0,1,1-.06-1.55A1.1,1.1,0,0,1,421.12,264.35Z" style="fill:#FF725E"></path><path d="M421.12,264.35a1.09,1.09,0,1,1-.06-1.55A1.1,1.1,0,0,1,421.12,264.35Z" style="fill:#fff;opacity:0.30000000000000004"></path><circle cx="418.7" cy="273.55" r="0.65" style="opacity:0.30000000000000004"></circle><circle cx="418.7" cy="273.2" r="0.65" style="fill:#FF725E"></circle><circle cx="418.7" cy="273.2" r="0.65" style="fill:#fff;opacity:0.30000000000000004"></circle><path d="M430,268.62c-.2,0-.38-.5-.4-1.13a3.51,3.51,0,0,1,0-.58c.06-.34.17-.57.31-.57s.38.5.4,1.13S430.24,268.61,430,268.62Z" style="fill:#FF725E"></path><path d="M425.85,266.14a16.72,16.72,0,0,0,3.83.81l0,1.13s-3.1.16-4,.7A17,17,0,0,0,425.85,266.14Z" style="fill:#FF725E"></path><path d="M429.66,267a3.74,3.74,0,0,0,0,1.13l-.69.05a3.79,3.79,0,0,1,.4-1.18Z" style="opacity:0.30000000000000004"></path><path d="M427.58,261.83c-.18.11-.59-.24-.92-.77a2.6,2.6,0,0,1-.27-.52c-.12-.32-.14-.57,0-.64s.58.23.91.77S427.75,261.72,427.58,261.83Z" style="fill:#FF725E"></path><path d="M424.06,261.54a9.46,9.46,0,0,0,2.37-1l.59,1a6.22,6.22,0,0,0-1.95,1.76A12.55,12.55,0,0,0,424.06,261.54Z" style="fill:#FF725E"></path><path d="M426.41,260.58a2.43,2.43,0,0,0,.61.95l-.57.38a3.53,3.53,0,0,1-.25-1.2Z" style="opacity:0.30000000000000004"></path><path d="M424.55,256.14c-.1.18-.62.08-1.18-.22a3.78,3.78,0,0,1-.49-.32c-.26-.22-.4-.43-.33-.55s.62-.08,1.18.22S424.65,256,424.55,256.14Z" style="fill:#FF725E"></path><path d="M420.3,258.5a16.66,16.66,0,0,0,2.64-2.89l1,.55s-1.42,2.76-1.39,3.78A18.39,18.39,0,0,0,420.3,258.5Z" style="fill:#FF725E"></path><path d="M422.92,255.63a3.68,3.68,0,0,0,1,.53c-.09.19-.2.4-.3.62a3.77,3.77,0,0,1-.83-.94Z" style="opacity:0.30000000000000004"></path><path d="M417.59,254.76c0,.21-.5.39-1.13.41a2.68,2.68,0,0,1-.58,0c-.34,0-.56-.16-.57-.3s.5-.39,1.13-.41S417.58,254.56,417.59,254.76Z" style="fill:#FF725E"></path><path d="M415.57,257.66a9.37,9.37,0,0,0,.36-2.54l1.12,0a6.09,6.09,0,0,0,.54,2.56A12.7,12.7,0,0,0,415.57,257.66Z" style="fill:#FF725E"></path><path d="M415.93,255.15a2.56,2.56,0,0,0,1.12-.05c0,.21,0,.44,0,.68a3.63,3.63,0,0,1-1.16-.39Z" style="opacity:0.30000000000000004"></path><path d="M421.73,271.25c-.35.65-1,1-1.44.76s-.52-.95-.17-1.61,1-1,1.44-.77S422.07,270.59,421.73,271.25Z" style="opacity:0.30000000000000004"></path><path d="M422.11,270.88c-.34.66-1,1-1.43.77s-.52-1-.17-1.62,1-1,1.43-.77S422.46,270.22,422.11,270.88Z" style="fill:#FF725E"></path><path d="M422.11,270.88c-.34.66-1,1-1.43.77s-.52-1-.17-1.62,1-1,1.43-.77S422.46,270.22,422.11,270.88Z" style="fill:#fff;opacity:0.30000000000000004"></path><path d="M417.63,267a1.35,1.35,0,1,1-1.35-1.35A1.35,1.35,0,0,1,417.63,267Z" style="opacity:0.30000000000000004"></path><path d="M417.63,266.16a1.35,1.35,0,1,1-1.35-1.35A1.34,1.34,0,0,1,417.63,266.16Z" style="fill:#FF725E"></path><path d="M417.63,266.16a1.35,1.35,0,1,1-1.35-1.35A1.34,1.34,0,0,1,417.63,266.16Z" style="fill:#fff;opacity:0.2"></path><g style="opacity:0.2"><path d="M421.13,274.33c.05.1-.07.31-.39.59a5.58,5.58,0,0,1-1.52.88,9.29,9.29,0,0,1-1.16.38,9.8,9.8,0,0,1-1.4.21,9,9,0,0,1-6.14-1.85,10.89,10.89,0,0,1-1-1,8.74,8.74,0,0,1-.77-1,5.86,5.86,0,0,1-.77-1.58c-.11-.4-.1-.65,0-.7s.75.59,1.71,1.49q.36.33.81.69a8.64,8.64,0,0,0,1,.7,9.85,9.85,0,0,0,2.47,1.14,9.69,9.69,0,0,0,2.69.42,11.84,11.84,0,0,0,1.21,0c.38,0,.74-.08,1.06-.14C420.18,274.41,421,274.11,421.13,274.33Z"></path></g><g style="opacity:0.2"><path d="M407.82,267a.82.82,0,1,1-.83.86A.84.84,0,0,1,407.82,267Z"></path></g><circle cx="342.78" cy="392.17" r="5.24" style="fill:#FF725E"></circle><g style="opacity:0.2"><path d="M346.21,394.12c-.23-.12-.18-.65-.25-1.37l0-.28c0-.09,0-.19-.05-.29a5.06,5.06,0,0,0-.15-.62,4.33,4.33,0,0,0-.61-1.24,4.09,4.09,0,0,0-1-1,5.46,5.46,0,0,0-.55-.34l-.26-.13c-.09,0-.17-.09-.26-.12-.66-.28-1.18-.4-1.22-.66a.25.25,0,0,1,.06-.2.87.87,0,0,1,.27-.21,2.3,2.3,0,0,1,1.12-.24,2.44,2.44,0,0,1,.38,0l.42.07a4.11,4.11,0,0,1,.88.29,5,5,0,0,1,.89.55,4.82,4.82,0,0,1,.79.83,4.43,4.43,0,0,1,.54,1,5.05,5.05,0,0,1,.25,1,4.85,4.85,0,0,1,0,.93c0,.14,0,.28-.07.41a3.29,3.29,0,0,1-.1.37,2.36,2.36,0,0,1-.58,1,.71.71,0,0,1-.27.19A.28.28,0,0,1,346.21,394.12Z" style="fill:#fff"></path></g><path d="M339.84,385.24c.05.1-.14.33-.43.51a1.53,1.53,0,0,1-.29.14c-.17.07-.31.08-.35,0s.13-.32.42-.51S339.78,385.15,339.84,385.24Z" style="fill:#FF725E"></path><path d="M339.81,387.92a9.2,9.2,0,0,0-.67-2.05l.53-.32a8,8,0,0,0,1.43,1.7A9.66,9.66,0,0,0,339.81,387.92Z" style="fill:#FF725E"></path><path d="M339.15,385.89a2.11,2.11,0,0,0,.52-.34c.07.1.14.21.22.31a1.9,1.9,0,0,1-.68.14Z" style="opacity:0.30000000000000004"></path><path d="M337.28,388.3c.1.05.05.34-.11.65a1.78,1.78,0,0,1-.17.27c-.12.15-.23.22-.3.19s-.05-.34.11-.65S337.18,388.24,337.28,388.3Z" style="fill:#FF725E"></path><path d="M338.12,390.05a5,5,0,0,0-1.12-.86l.3-.55a3.24,3.24,0,0,0,1.37.44A7,7,0,0,0,338.12,390.05Z" style="fill:#FF725E"></path><path d="M337,389.2a1.35,1.35,0,0,0,.29-.56,2.55,2.55,0,0,0,.33.17,1.93,1.93,0,0,1-.5.46Z" style="opacity:0.30000000000000004"></path><path d="M335.42,391.32c.11,0,.21.27.22.62,0,.11,0,.22,0,.32s-.09.31-.17.31-.21-.27-.22-.62S335.3,391.32,335.42,391.32Z" style="fill:#FF725E"></path><path d="M337.72,392.68a9.16,9.16,0,0,0-2.11-.45v-.62a7.76,7.76,0,0,0,2.18-.38A10.3,10.3,0,0,0,337.72,392.68Z" style="fill:#FF725E"></path><path d="M335.62,392.23a1.89,1.89,0,0,0,0-.62l.38,0a2.22,2.22,0,0,1-.22.66Z" style="opacity:0.30000000000000004"></path><path d="M336.69,395c.1-.06.32.13.51.43a1.46,1.46,0,0,1,.14.28c.07.18.08.32,0,.36s-.32-.13-.51-.43S336.6,395.07,336.69,395Z" style="fill:#FF725E"></path><path d="M338.63,395.17a5,5,0,0,0-1.31.54l-.32-.54a3.38,3.38,0,0,0,1.07-1A7.51,7.51,0,0,0,338.63,395.17Z" style="fill:#FF725E"></path><path d="M337.33,395.7a1.36,1.36,0,0,0-.33-.53,2.29,2.29,0,0,0,.31-.2,2,2,0,0,1,.14.66Z" style="opacity:0.30000000000000004"></path><path d="M339.55,398.89c0-.11.33-.13.66,0a1.89,1.89,0,0,1,.31.1c.17.08.27.18.25.25s-.32.13-.66,0S339.53,399,339.55,398.89Z" style="fill:#FF725E"></path><path d="M341.51,397.05a9.09,9.09,0,0,0-1,1.91l-.6-.17a7.66,7.66,0,0,0,.24-2.2A8.94,8.94,0,0,0,341.51,397.05Z" style="fill:#FF725E"></path><path d="M340.49,398.94a2.06,2.06,0,0,0-.6-.15c0-.11.05-.24.08-.37a2.1,2.1,0,0,1,.56.39Z" style="opacity:0.30000000000000004"></path><path d="M343.63,398.82c0-.12.24-.25.59-.31l.32,0c.18,0,.32,0,.33.12s-.24.25-.58.31S343.65,398.93,343.63,398.82Z" style="fill:#FF725E"></path><path d="M344.51,397.08a5.19,5.19,0,0,0,0,1.41l-.61.1a3.38,3.38,0,0,0-.49-1.36A6.51,6.51,0,0,0,344.51,397.08Z" style="fill:#FF725E"></path><path d="M344.51,398.48a1.39,1.39,0,0,0-.61.11c0-.11,0-.24-.07-.37a2.17,2.17,0,0,1,.66.12Z" style="opacity:0.30000000000000004"></path><path d="M348.06,397.42c-.09-.07,0-.35.24-.62a1.63,1.63,0,0,1,.22-.23c.14-.12.27-.17.33-.13s0,.35-.24.62S348.14,397.49,348.06,397.42Z" style="fill:#FF725E"></path><path d="M347.21,394.88a9.07,9.07,0,0,0,1.3,1.72l-.4.47a7.75,7.75,0,0,0-1.9-1.14A9.84,9.84,0,0,0,347.21,394.88Z" style="fill:#FF725E"></path><path d="M348.5,396.59a2,2,0,0,0-.39.48l-.3-.22a1.86,1.86,0,0,1,.59-.35Z" style="opacity:0.30000000000000004"></path><path d="M340.54,392.92c0,.41-.22.74-.5.74s-.49-.33-.49-.74.22-.73.49-.73S340.54,392.52,340.54,392.92Z" style="opacity:0.30000000000000004"></path><path d="M340.35,392.51c0,.4-.22.73-.49.73s-.5-.33-.5-.73.22-.74.5-.74S340.35,392.1,340.35,392.51Z" style="fill:#FF725E"></path><path d="M340.35,392.51c0,.4-.22.73-.49.73s-.5-.33-.5-.73.22-.74.5-.74S340.35,392.1,340.35,392.51Z" style="fill:#fff;opacity:0.2"></path><path d="M340.34,388.7c.36-.19.75-.14.88.1s-.06.59-.42.78-.75.15-.88-.1S340,388.89,340.34,388.7Z" style="opacity:0.30000000000000004"></path><path d="M340.12,388.32c.36-.19.75-.15.88.09s-.06.59-.42.78-.75.15-.88-.09S339.76,388.51,340.12,388.32Z" style="fill:#FF725E"></path><path d="M340.12,388.32c.36-.19.75-.15.88.09s-.06.59-.42.78-.75.15-.88-.09S339.76,388.51,340.12,388.32Z" style="fill:#fff;opacity:0.2"></path><path d="M342,395.13a.49.49,0,1,1-.48-.48A.48.48,0,0,1,342,395.13Z" style="opacity:0.30000000000000004"></path><path d="M342,394.87a.49.49,0,1,1-1,0,.49.49,0,0,1,1,0Z" style="fill:#FF725E"></path><path d="M342,394.87a.49.49,0,1,1-1,0,.49.49,0,0,1,1,0Z" style="fill:#fff;opacity:0.30000000000000004"></path><path d="M345.2,390.83a.59.59,0,1,1-.87-.8.59.59,0,1,1,.87.8Z" style="opacity:0.30000000000000004"></path><path d="M345.42,390.6a.6.6,0,0,1-.88-.81.6.6,0,0,1,.88.81Z" style="fill:#FF725E"></path><path d="M345.42,390.6a.6.6,0,0,1-.88-.81.6.6,0,0,1,.88.81Z" style="fill:#fff;opacity:0.30000000000000004"></path><path d="M344.45,395.61a.36.36,0,0,1-.71,0,.36.36,0,1,1,.71,0Z" style="opacity:0.30000000000000004"></path><path d="M344.45,395.42a.36.36,0,0,1-.71,0,.36.36,0,1,1,.71,0Z" style="fill:#FF725E"></path><path d="M344.45,395.42a.36.36,0,0,1-.71,0,.36.36,0,1,1,.71,0Z" style="fill:#fff;opacity:0.30000000000000004"></path><path d="M350.27,392.93c-.11,0-.21-.28-.22-.62a1.1,1.1,0,0,1,0-.32c0-.18.09-.3.16-.31s.21.28.22.62S350.38,392.92,350.27,392.93Z" style="fill:#FF725E"></path><path d="M348,391.57a9,9,0,0,0,2.09.45v.61a7.65,7.65,0,0,0-2.16.38A10.13,10.13,0,0,0,348,391.57Z" style="fill:#FF725E"></path><path d="M350.06,392a2,2,0,0,0,0,.61l-.38,0a2.07,2.07,0,0,1,.22-.64Z" style="opacity:0.30000000000000004"></path><path d="M348.93,389.23c-.09.06-.32-.13-.5-.42a1.82,1.82,0,0,1-.14-.28c-.07-.18-.08-.31,0-.35s.32.13.5.42S349,389.17,348.93,389.23Z" style="fill:#FF725E"></path><path d="M347,389.07a5.06,5.06,0,0,0,1.29-.53l.32.53a3.31,3.31,0,0,0-1.06.95A6.54,6.54,0,0,0,347,389.07Z" style="fill:#FF725E"></path><path d="M348.3,388.55a1.28,1.28,0,0,0,.33.52l-.31.2a1.92,1.92,0,0,1-.14-.65Z" style="opacity:0.30000000000000004"></path><path d="M347.28,386.13c0,.1-.34.05-.64-.12a1.3,1.3,0,0,1-.26-.17c-.15-.12-.22-.23-.19-.3s.34,0,.64.12S347.34,386,347.28,386.13Z" style="fill:#FF725E"></path><path d="M345,387.42a9,9,0,0,0,1.44-1.58l.53.3a7.84,7.84,0,0,0-.76,2.06A9.63,9.63,0,0,0,345,387.42Z" style="fill:#FF725E"></path><path d="M346.4,385.86a1.93,1.93,0,0,0,.54.28c-.05.1-.11.22-.16.34a1.86,1.86,0,0,1-.45-.51Z" style="opacity:0.30000000000000004"></path><path d="M343.49,385.38c0,.11-.27.21-.61.23l-.32,0c-.18,0-.3-.09-.31-.17s.27-.21.62-.22S343.49,385.27,343.49,385.38Z" style="fill:#FF725E"></path><path d="M342.4,387a5.22,5.22,0,0,0,.19-1.38l.61,0a3.29,3.29,0,0,0,.3,1.4A6.28,6.28,0,0,0,342.4,387Z" style="fill:#FF725E"></path><path d="M342.59,385.59a1.3,1.3,0,0,0,.61,0c0,.12,0,.24,0,.37a1.85,1.85,0,0,1-.63-.2Z" style="opacity:0.30000000000000004"></path><path d="M345.75,394.36c-.19.35-.54.54-.78.41s-.29-.52-.1-.88.54-.54.78-.41S345.94,394,345.75,394.36Z" style="opacity:0.30000000000000004"></path><path d="M346,394.16c-.19.36-.54.54-.78.42s-.29-.53-.1-.89.54-.54.78-.41S346.15,393.8,346,394.16Z" style="fill:#FF725E"></path><path d="M346,394.16c-.19.36-.54.54-.78.42s-.29-.53-.1-.89.54-.54.78-.41S346.15,393.8,346,394.16Z" style="fill:#fff;opacity:0.30000000000000004"></path><path d="M343.52,392a.74.74,0,1,1-.74-.74A.74.74,0,0,1,343.52,392Z" style="opacity:0.30000000000000004"></path><path d="M343.52,391.59a.74.74,0,1,1-.74-.74A.74.74,0,0,1,343.52,391.59Z" style="fill:#FF725E"></path><path d="M343.52,391.59a.74.74,0,1,1-.74-.74A.74.74,0,0,1,343.52,391.59Z" style="fill:#fff;opacity:0.2"></path><g style="opacity:0.2"><path d="M345.42,396c0,.06,0,.17-.21.32a3.11,3.11,0,0,1-.83.49,5.9,5.9,0,0,1-.63.2,5.75,5.75,0,0,1-.76.12,5,5,0,0,1-1.77-.2,4.85,4.85,0,0,1-1.57-.81,4.91,4.91,0,0,1-.57-.52,6,6,0,0,1-.42-.52,3.3,3.3,0,0,1-.42-.86c-.06-.22-.05-.36,0-.38s.41.32.93.81l.44.38c.17.12.34.26.54.38a6.22,6.22,0,0,0,1.35.62,5.53,5.53,0,0,0,1.46.23l.66,0a4.78,4.78,0,0,0,.58-.08C344.9,396.08,345.35,395.91,345.42,396Z"></path></g><g style="opacity:0.2"><path d="M338.17,392a.45.45,0,1,1-.45.46A.46.46,0,0,1,338.17,392Z"></path></g><path d="M99.46,367.23A5.24,5.24,0,1,1,94.22,362,5.24,5.24,0,0,1,99.46,367.23Z" style="fill:#FF725E"></path><g style="opacity:0.2"><path d="M97.65,369.19c-.24-.13-.19-.66-.25-1.38,0-.09,0-.18,0-.27s0-.2,0-.3a5.06,5.06,0,0,0-.15-.62,4,4,0,0,0-1.61-2.2,5.35,5.35,0,0,0-.54-.34l-.26-.13-.26-.12c-.66-.28-1.18-.4-1.23-.66a.24.24,0,0,1,.07-.2.68.68,0,0,1,.27-.21,2.41,2.41,0,0,1,1.11-.24,2.61,2.61,0,0,1,.39,0l.41.06a3.74,3.74,0,0,1,.89.3,4,4,0,0,1,.88.55,4.11,4.11,0,0,1,.79.82,4,4,0,0,1,.54,1,3.83,3.83,0,0,1,.25,1,3.63,3.63,0,0,1,0,.93c0,.15,0,.28-.06.41s-.06.26-.1.38a2.63,2.63,0,0,1-.58,1,1.26,1.26,0,0,1-.28.19A.26.26,0,0,1,97.65,369.19Z" style="fill:#fff"></path></g><path d="M91.27,360.31c.06.09-.13.32-.42.5l-.29.15c-.18.06-.31.07-.35,0s.13-.32.42-.5S91.21,360.21,91.27,360.31Z" style="fill:#FF725E"></path><path d="M91.25,363a9.2,9.2,0,0,0-.67-2.05l.53-.32a7.73,7.73,0,0,0,1.43,1.7A11.07,11.07,0,0,0,91.25,363Z" style="fill:#FF725E"></path><path d="M90.58,361a2.09,2.09,0,0,0,.53-.34l.21.32a2.07,2.07,0,0,1-.67.14Z" style="opacity:0.30000000000000004"></path><path d="M88.72,363.36c.1.05,0,.34-.11.65a2.11,2.11,0,0,1-.18.27c-.11.15-.23.23-.29.19s0-.34.11-.65S88.62,363.31,88.72,363.36Z" style="fill:#FF725E"></path><path d="M89.56,365.11a5.39,5.39,0,0,0-1.12-.86l.29-.54a3.46,3.46,0,0,0,1.38.44A6.63,6.63,0,0,0,89.56,365.11Z" style="fill:#FF725E"></path><path d="M88.45,364.26a1.26,1.26,0,0,0,.28-.55l.34.16a1.93,1.93,0,0,1-.5.46Z" style="opacity:0.30000000000000004"></path><path d="M86.85,366.38c.11,0,.21.27.23.62a2.88,2.88,0,0,1,0,.32c0,.19-.1.31-.17.31s-.21-.27-.22-.62S86.74,366.38,86.85,366.38Z" style="fill:#FF725E"></path><path d="M89.16,367.75a9.13,9.13,0,0,0-2.11-.46v-.62a7.76,7.76,0,0,0,2.18-.38A9,9,0,0,0,89.16,367.75Z" style="fill:#FF725E"></path><path d="M87.06,367.29a2.25,2.25,0,0,0,0-.62l.37,0a2.09,2.09,0,0,1-.21.65Z" style="opacity:0.30000000000000004"></path><path d="M88.13,370.07c.09-.06.32.13.5.43a1.3,1.3,0,0,1,.15.28c.07.18.08.32,0,.36s-.33-.13-.51-.43S88,370.13,88.13,370.07Z" style="fill:#FF725E"></path><path d="M90.06,370.23a5.29,5.29,0,0,0-1.3.54l-.33-.53a3.46,3.46,0,0,0,1.08-1A6.46,6.46,0,0,0,90.06,370.23Z" style="fill:#FF725E"></path><path d="M88.77,370.76a1.36,1.36,0,0,0-.34-.52l.32-.21a2,2,0,0,1,.14.66Z" style="opacity:0.30000000000000004"></path><path d="M91,374c0-.11.32-.13.66,0a1.17,1.17,0,0,1,.3.11c.17.08.28.17.26.24s-.33.13-.66,0S91,374.06,91,374Z" style="fill:#FF725E"></path><path d="M92.94,372.12a9.33,9.33,0,0,0-1,1.9l-.6-.16a7.82,7.82,0,0,0,.23-2.21A10.38,10.38,0,0,0,92.94,372.12Z" style="fill:#FF725E"></path><path d="M91.93,374a1.87,1.87,0,0,0-.6-.14c0-.12,0-.24.07-.38a2.11,2.11,0,0,1,.57.39Z" style="opacity:0.30000000000000004"></path><path d="M95.07,373.88c0-.11.24-.25.58-.31l.32,0c.19,0,.32,0,.34.12s-.25.25-.59.31S95.09,374,95.07,373.88Z" style="fill:#FF725E"></path><path d="M96,372.14a5.22,5.22,0,0,0,0,1.41l-.62.1a3.31,3.31,0,0,0-.49-1.35A7.15,7.15,0,0,0,96,372.14Z" style="fill:#FF725E"></path><path d="M96,373.54a1.44,1.44,0,0,0-.62.11,2.83,2.83,0,0,0-.07-.36,2,2,0,0,1,.67.12Z" style="opacity:0.30000000000000004"></path><path d="M99.49,372.48c-.08-.07,0-.35.24-.62a1.66,1.66,0,0,1,.23-.23c.14-.12.27-.17.33-.12s0,.34-.24.61S99.58,372.55,99.49,372.48Z" style="fill:#FF725E"></path><path d="M98.65,369.94a9.07,9.07,0,0,0,1.3,1.72l-.4.48A7.62,7.62,0,0,0,97.64,371,10.76,10.76,0,0,0,98.65,369.94Z" style="fill:#FF725E"></path><path d="M99.94,371.65a1.91,1.91,0,0,0-.39.49l-.31-.23a2.16,2.16,0,0,1,.6-.35Z" style="opacity:0.30000000000000004"></path><ellipse cx="91.48" cy="367.99" rx="0.49" ry="0.73" style="opacity:0.30000000000000004"></ellipse><path d="M91.79,367.57c0,.41-.22.73-.5.73s-.49-.32-.49-.73.22-.73.49-.73S91.79,367.16,91.79,367.57Z" style="fill:#FF725E"></path><path d="M91.79,367.57c0,.41-.22.73-.5.73s-.49-.32-.49-.73.22-.73.49-.73S91.79,367.16,91.79,367.57Z" style="fill:#fff;opacity:0.2"></path><path d="M91.77,363.77c.36-.19.76-.15.88.09s-.05.59-.41.78-.76.15-.88-.09S91.42,364,91.77,363.77Z" style="opacity:0.30000000000000004"></path><path d="M91.56,363.38c.36-.19.75-.15.88.09s-.06.59-.42.78-.75.15-.88-.09S91.2,363.57,91.56,363.38Z" style="fill:#FF725E"></path><path d="M91.56,363.38c.36-.19.75-.15.88.09s-.06.59-.42.78-.75.15-.88-.09S91.2,363.57,91.56,363.38Z" style="fill:#fff;opacity:0.2"></path><path d="M93.43,370.19a.49.49,0,1,1-.49-.48A.49.49,0,0,1,93.43,370.19Z" style="opacity:0.30000000000000004"></path><path d="M93.43,369.93a.49.49,0,1,1-.49-.48A.49.49,0,0,1,93.43,369.93Z" style="fill:#FF725E"></path><path d="M93.43,369.93a.49.49,0,1,1-.49-.48A.49.49,0,0,1,93.43,369.93Z" style="fill:#fff;opacity:0.30000000000000004"></path><path d="M96.64,365.9a.6.6,0,0,1-.88-.81.59.59,0,0,1,.84,0A.6.6,0,0,1,96.64,365.9Z" style="opacity:0.30000000000000004"></path><path d="M96.85,365.66a.59.59,0,1,1-.87-.8.59.59,0,0,1,.84,0A.6.6,0,0,1,96.85,365.66Z" style="fill:#FF725E"></path><path d="M96.85,365.66a.59.59,0,1,1-.87-.8.59.59,0,0,1,.84,0A.6.6,0,0,1,96.85,365.66Z" style="fill:#fff;opacity:0.30000000000000004"></path><circle cx="95.53" cy="370.67" r="0.35" style="opacity:0.30000000000000004"></circle><circle cx="95.53" cy="370.48" r="0.35" style="fill:#FF725E"></circle><circle cx="95.53" cy="370.48" r="0.35" style="fill:#fff;opacity:0.30000000000000004"></circle><path d="M101.7,368c-.11,0-.2-.27-.21-.62a1.55,1.55,0,0,1,0-.31c0-.19.09-.31.17-.31s.21.27.22.61S101.82,368,101.7,368Z" style="fill:#FF725E"></path><path d="M99.43,366.64a9.21,9.21,0,0,0,2.08.44v.62a7.56,7.56,0,0,0-2.16.37A9.6,9.6,0,0,0,99.43,366.64Z" style="fill:#FF725E"></path><path d="M101.5,367.08a2.25,2.25,0,0,0,0,.62l-.37,0a1.83,1.83,0,0,1,.22-.64Z" style="opacity:0.30000000000000004"></path><path d="M100.37,364.29c-.1.06-.32-.13-.5-.42a2.6,2.6,0,0,1-.15-.28c-.06-.17-.07-.31,0-.35s.32.13.5.42S100.46,364.23,100.37,364.29Z" style="fill:#FF725E"></path><path d="M98.46,364.13a5.25,5.25,0,0,0,1.29-.52l.32.52a3.28,3.28,0,0,0-1.06,1A8.38,8.38,0,0,0,98.46,364.13Z" style="fill:#FF725E"></path><path d="M99.73,363.61a1.36,1.36,0,0,0,.34.52l-.31.2a1.92,1.92,0,0,1-.14-.65Z" style="opacity:0.30000000000000004"></path><path d="M98.72,361.2c0,.09-.34,0-.64-.12l-.27-.18c-.14-.12-.22-.23-.18-.3s.34,0,.64.12S98.77,361.1,98.72,361.2Z" style="fill:#FF725E"></path><path d="M96.41,362.48a9.13,9.13,0,0,0,1.43-1.58l.54.3a7.49,7.49,0,0,0-.76,2.06A10.47,10.47,0,0,0,96.41,362.48Z" style="fill:#FF725E"></path><path d="M97.83,360.92a2.06,2.06,0,0,0,.55.28l-.17.34a2,2,0,0,1-.45-.51Z" style="opacity:0.30000000000000004"></path><path d="M94.93,360.45c0,.11-.27.21-.61.22l-.32,0c-.18,0-.31-.09-.31-.16s.27-.21.61-.23S94.93,360.33,94.93,360.45Z" style="fill:#FF725E"></path><path d="M93.83,362a5,5,0,0,0,.2-1.38h.61a3.35,3.35,0,0,0,.29,1.39A7.54,7.54,0,0,0,93.83,362Z" style="fill:#FF725E"></path><path d="M94,360.65a1.38,1.38,0,0,0,.61,0c0,.11,0,.24,0,.37a1.94,1.94,0,0,1-.63-.21Z" style="opacity:0.30000000000000004"></path><path d="M97.18,369.42c-.19.36-.54.54-.78.42s-.28-.53-.09-.88.54-.55.78-.42S97.37,369.06,97.18,369.42Z" style="opacity:0.30000000000000004"></path><path d="M97.39,369.22c-.19.36-.53.54-.78.42s-.28-.52-.09-.88.54-.55.78-.42S97.58,368.86,97.39,369.22Z" style="fill:#FF725E"></path><path d="M97.39,369.22c-.19.36-.53.54-.78.42s-.28-.52-.09-.88.54-.55.78-.42S97.58,368.86,97.39,369.22Z" style="fill:#fff;opacity:0.30000000000000004"></path><path d="M95,367.08a.74.74,0,1,1-.73-.74A.73.73,0,0,1,95,367.08Z" style="opacity:0.30000000000000004"></path><circle cx="94.22" cy="366.65" r="0.73" style="fill:#FF725E"></circle><circle cx="94.22" cy="366.65" r="0.73" style="fill:#fff;opacity:0.2"></circle><g style="opacity:0.2"><path d="M96.86,371.1s0,.17-.21.32a3.3,3.3,0,0,1-.83.48,4.4,4.4,0,0,1-.64.2,5.27,5.27,0,0,1-.76.12,4.77,4.77,0,0,1-1.76-.2,4.91,4.91,0,0,1-1.58-.81,5.72,5.72,0,0,1-.56-.52,3.69,3.69,0,0,1-.42-.52,3,3,0,0,1-.42-.86c-.06-.22-.06-.35,0-.38s.41.32.93.81l.44.38a6.31,6.31,0,0,0,.54.38,5.33,5.33,0,0,0,1.34.62,5.67,5.67,0,0,0,1.47.23c.23,0,.45,0,.66,0l.57-.07C96.34,371.14,96.79,371,96.86,371.1Z"></path></g><g style="opacity:0.2"><path d="M89.61,367.08a.45.45,0,1,1-.45.47A.46.46,0,0,1,89.61,367.08Z"></path></g><circle cx="369.36" cy="200" r="14.56" style="fill:#FF725E"></circle><circle cx="369.36" cy="200" r="14.56" style="fill:#fff;opacity:0.7000000000000001"></circle><circle cx="136.04" cy="217.32" r="8.03" transform="translate(-106.65 299.99) rotate(-76.76)" style="fill:#FF725E"></circle><circle cx="136.04" cy="217.32" r="8.03" transform="translate(-106.65 299.99) rotate(-76.76)" style="fill:#fff;opacity:0.7000000000000001"></circle><circle cx="170.96" cy="149.76" r="8.03" transform="translate(-44.44 77.26) rotate(-22.62)" style="fill:#FF725E"></circle><circle cx="170.96" cy="149.76" r="8.03" transform="translate(-44.44 77.26) rotate(-22.62)" style="fill:#fff;opacity:0.7000000000000001"></circle><circle cx="317.85" cy="98.77" r="8.03" transform="translate(-13.54 129.83) rotate(-22.62)" style="fill:#FF725E"></circle><circle cx="317.85" cy="98.77" r="8.03" transform="translate(-13.54 129.83) rotate(-22.62)" style="fill:#fff;opacity:0.7000000000000001"></circle><path d="M150.65,319.25a5.32,5.32,0,1,1-5.31-5.6A5.46,5.46,0,0,1,150.65,319.25Z" style="fill:#FF725E"></path><path d="M150.65,319.25a5.32,5.32,0,1,1-5.31-5.6A5.46,5.46,0,0,1,150.65,319.25Z" style="fill:#fff;opacity:0.7000000000000001"></path><ellipse cx="268.66" cy="392.65" rx="10.65" ry="10.04" style="fill:#FF725E"></ellipse><ellipse cx="268.66" cy="392.65" rx="10.65" ry="10.04" style="fill:#fff;opacity:0.6000000000000001"></ellipse><path d="M152.31,140.33a9.58,9.58,0,0,0,1.3-3.52,14.41,14.41,0,0,1,3.93-.68V135a17,17,0,0,1-3.85-.8,9.4,9.4,0,0,0-.78-2.85,6.43,6.43,0,0,1,2-1.77l-.58-1a9.27,9.27,0,0,1-2.41,1,10,10,0,0,0-1.5-1.62c0-1,1.39-3.76,1.39-3.76l-1-.55a16.72,16.72,0,0,1-2.63,2.89,9.59,9.59,0,0,0-2.72-.79,6.82,6.82,0,0,1-.53-2.61l-1.13,0a9.53,9.53,0,0,1-.35,2.53,9.36,9.36,0,0,0-2.44.5,14.94,14.94,0,0,1-2.57-3.08l-1,.59a15.71,15.71,0,0,1,1.22,3.67,9.61,9.61,0,0,0-2.28,2.22,6.77,6.77,0,0,1-2.32-.8l-.54,1a9.55,9.55,0,0,1,1.9,1.42,9.66,9.66,0,0,0-.77,2.46,17.24,17.24,0,0,1-3.71.56l0,1.15a15.05,15.05,0,0,1,3.59.73,9.85,9.85,0,0,0,.8,3.08,6.72,6.72,0,0,1-1.84,1.59l.59,1a9.58,9.58,0,0,1,2.19-.92,9.71,9.71,0,0,0,3,2.74,16.19,16.19,0,0,1-.47,3.86l1.1.3a14.66,14.66,0,0,1,1.67-3.19,9.67,9.67,0,0,0,2.54.35,9.39,9.39,0,0,0,1.31-.1,6.87,6.87,0,0,1,.74,2.27l1.13-.18a9.32,9.32,0,0,1,0-2.54,9.55,9.55,0,0,0,3.43-2.08,17,17,0,0,1,3.19,2l.74-.88A15.65,15.65,0,0,1,152.31,140.33Zm-8.59-14.65h0Z" style="fill:#FF725E"></path><g style="opacity:0.2"><path d="M150.43,138.87c-.44-.23-.34-1.21-.47-2.52,0-.17,0-.34-.06-.51s-.05-.36-.08-.54a10.49,10.49,0,0,0-.28-1.14,7.92,7.92,0,0,0-1.12-2.28,8,8,0,0,0-1.82-1.77c-.33-.24-.68-.43-1-.62l-.49-.24c-.16-.07-.31-.15-.47-.21-1.21-.53-2.16-.74-2.25-1.23a.45.45,0,0,1,.12-.36,1.34,1.34,0,0,1,.49-.38,4.42,4.42,0,0,1,2.05-.45c.23,0,.46,0,.71,0l.76.12a8,8,0,0,1,1.62.55,7.67,7.67,0,0,1,1.63,1,8.07,8.07,0,0,1,1.46,1.51,8.29,8.29,0,0,1,1,1.85,7.68,7.68,0,0,1,.47,3.57,5.75,5.75,0,0,1-.12.76,6.08,6.08,0,0,1-.19.68,4.47,4.47,0,0,1-1,1.82,1.66,1.66,0,0,1-.51.35A.44.44,0,0,1,150.43,138.87Z" style="fill:#fff"></path></g><path d="M138.71,122.56c.11.17-.24.59-.78.93a2.87,2.87,0,0,1-.53.26c-.32.13-.57.14-.65,0s.24-.59.78-.93S138.6,122.38,138.71,122.56Z" style="fill:#FF725E"></path><path d="M137.45,123.74a3.78,3.78,0,0,0,1-.62l.39.58a3.89,3.89,0,0,1-1.23.26Z" style="opacity:0.30000000000000004"></path><path d="M134,128.17c.19.09.09.63-.2,1.19a3.32,3.32,0,0,1-.32.5c-.22.27-.43.41-.55.35s-.09-.63.21-1.2S133.84,128.07,134,128.17Z" style="fill:#FF725E"></path><path d="M133.53,129.82a2.53,2.53,0,0,0,.52-1,6,6,0,0,0,.62.31,3.58,3.58,0,0,1-.92.83Z" style="opacity:0.30000000000000004"></path><path d="M130.59,133.71c.21,0,.39.51.41,1.14a3.57,3.57,0,0,1,0,.59c-.06.34-.17.57-.31.58s-.39-.51-.41-1.14S130.39,133.72,130.59,133.71Z" style="fill:#FF725E"></path><path d="M131,135.39a3.47,3.47,0,0,0,0-1.14l.69-.05a3.6,3.6,0,0,1-.4,1.2Z" style="opacity:0.30000000000000004"></path><path d="M132.94,140.5c.17-.11.59.24.93.78a3.79,3.79,0,0,1,.27.53c.12.32.14.57,0,.65s-.59-.24-.93-.78S132.76,140.61,132.94,140.5Z" style="fill:#FF725E"></path><path d="M134.12,141.76a2.6,2.6,0,0,0-.62-1c.18-.11.38-.24.57-.38a3.55,3.55,0,0,1,.26,1.22Z" style="opacity:0.30000000000000004"></path><path d="M138.2,147.62c.05-.2.59-.23,1.21-.08a4.3,4.3,0,0,1,.55.2c.32.15.5.32.47.45s-.59.24-1.21.08S138.14,147.82,138.2,147.62Z" style="fill:#FF725E"></path><path d="M139.92,147.72a3.62,3.62,0,0,0-1.11-.27c.05-.21.1-.44.14-.68a3.77,3.77,0,0,1,1.05.71Z" style="opacity:0.30000000000000004"></path><path d="M145.69,147.49c0-.21.44-.46,1.07-.57a3.13,3.13,0,0,1,.59,0c.34,0,.59.08.61.22s-.45.46-1.07.57S145.72,147.69,145.69,147.49Z" style="fill:#FF725E"></path><path d="M147.3,146.87a2.49,2.49,0,0,0-1.13.21,6.7,6.7,0,0,0-.13-.68,3.56,3.56,0,0,1,1.22.22Z" style="opacity:0.30000000000000004"></path><path d="M153.81,144.92c-.16-.13,0-.64.44-1.13a2.77,2.77,0,0,1,.42-.42c.26-.23.5-.32.6-.24s0,.64-.44,1.13S154,145.05,153.81,144.92Z" style="fill:#FF725E"></path><path d="M154.63,143.4a3.53,3.53,0,0,0-.72.89l-.55-.42a3.78,3.78,0,0,1,1.08-.64Z" style="opacity:0.30000000000000004"></path><path d="M140,136.67c0,.74-.41,1.35-.91,1.35s-.9-.61-.9-1.35.4-1.35.9-1.35S140,135.92,140,136.67Z" style="opacity:0.30000000000000004"></path><path d="M139.66,135.9c0,.75-.41,1.35-.91,1.35s-.91-.6-.91-1.35.41-1.35.91-1.35S139.66,135.16,139.66,135.9Z" style="fill:#FF725E"></path><path d="M139.66,135.9c0,.75-.41,1.35-.91,1.35s-.91-.6-.91-1.35.41-1.35.91-1.35S139.66,135.16,139.66,135.9Z" style="fill:#fff;opacity:0.2"></path><path d="M139.63,128.91c.66-.34,1.39-.27,1.62.17s-.11,1.09-.77,1.44-1.38.27-1.61-.17S139,129.26,139.63,128.91Z" style="opacity:0.30000000000000004"></path><path d="M139.23,128.21c.66-.35,1.39-.28,1.62.17s-.11,1.08-.76,1.43-1.39.27-1.62-.17S138.58,128.55,139.23,128.21Z" style="fill:#FF725E"></path><path d="M139.23,128.21c.66-.35,1.39-.28,1.62.17s-.11,1.08-.76,1.43-1.39.27-1.62-.17S138.58,128.55,139.23,128.21Z" style="fill:#fff;opacity:0.2"></path><path d="M142.67,140.72a.89.89,0,1,1-.89-.89A.89.89,0,0,1,142.67,140.72Z" style="opacity:0.30000000000000004"></path><path d="M142.67,140.24a.89.89,0,1,1-.89-.88A.89.89,0,0,1,142.67,140.24Z" style="fill:#FF725E"></path><path d="M142.67,140.24a.89.89,0,1,1-.89-.88A.89.89,0,0,1,142.67,140.24Z" style="fill:#fff;opacity:0.30000000000000004"></path><path d="M148.57,132.83a1.1,1.1,0,0,1-1.55.06,1.09,1.09,0,0,1,1.48-1.61A1.1,1.1,0,0,1,148.57,132.83Z" style="opacity:0.30000000000000004"></path><path d="M149,132.4a1.09,1.09,0,1,1-.06-1.55A1.1,1.1,0,0,1,149,132.4Z" style="fill:#FF725E"></path><path d="M149,132.4a1.09,1.09,0,1,1-.06-1.55A1.1,1.1,0,0,1,149,132.4Z" style="fill:#fff;opacity:0.30000000000000004"></path><circle cx="146.54" cy="141.6" r="0.65" style="opacity:0.30000000000000004"></circle><circle cx="146.54" cy="141.25" r="0.65" style="fill:#FF725E"></circle><circle cx="146.54" cy="141.25" r="0.65" style="fill:#fff;opacity:0.30000000000000004"></circle><path d="M157.88,136.67c-.21,0-.39-.5-.41-1.13a3.45,3.45,0,0,1,0-.58c.05-.34.16-.57.3-.57s.38.5.4,1.13S158.08,136.66,157.88,136.67Z" style="fill:#FF725E"></path><path d="M157.5,135a3.74,3.74,0,0,0,0,1.13l-.68.05a3.7,3.7,0,0,1,.39-1.18Z" style="opacity:0.30000000000000004"></path><path d="M155.42,129.88c-.17.11-.58-.24-.92-.77a3.15,3.15,0,0,1-.26-.52c-.13-.32-.15-.57,0-.64s.58.23.92.76S155.59,129.77,155.42,129.88Z" style="fill:#FF725E"></path><path d="M154.25,128.63a2.57,2.57,0,0,0,.61,1c-.18.11-.37.24-.56.38a3.72,3.72,0,0,1-.26-1.2Z" style="opacity:0.30000000000000004"></path><path d="M152.39,124.19c-.09.18-.62.08-1.17-.22a2.77,2.77,0,0,1-.49-.32c-.26-.22-.4-.43-.34-.55s.63-.08,1.18.22S152.49,124,152.39,124.19Z" style="fill:#FF725E"></path><path d="M150.77,123.68a3.55,3.55,0,0,0,1,.53c-.09.19-.2.4-.3.62a3.79,3.79,0,0,1-.82-.94Z" style="opacity:0.30000000000000004"></path><path d="M145.43,122.81c0,.21-.5.39-1.12.41a2.74,2.74,0,0,1-.59,0c-.33,0-.56-.16-.57-.3s.5-.39,1.13-.41S145.43,122.61,145.43,122.81Z" style="fill:#FF725E"></path><path d="M143.77,123.2a2.6,2.6,0,0,0,1.13,0c0,.21,0,.44,0,.68a3.63,3.63,0,0,1-1.16-.39Z" style="opacity:0.30000000000000004"></path><path d="M149.57,139.3c-.35.65-1,1-1.43.76s-.52-.95-.17-1.61,1-1,1.43-.77S149.92,138.64,149.57,139.3Z" style="opacity:0.30000000000000004"></path><path d="M150,138.93c-.35.66-1,1-1.44.77s-.51-1-.17-1.62,1-1,1.44-.77S150.31,138.27,150,138.93Z" style="fill:#FF725E"></path><path d="M150,138.93c-.35.66-1,1-1.44.77s-.51-1-.17-1.62,1-1,1.44-.77S150.31,138.27,150,138.93Z" style="fill:#fff;opacity:0.30000000000000004"></path><path d="M145.47,135a1.35,1.35,0,1,1-1.35-1.35A1.35,1.35,0,0,1,145.47,135Z" style="opacity:0.30000000000000004"></path><path d="M145.47,134.21a1.35,1.35,0,1,1-1.35-1.35A1.34,1.34,0,0,1,145.47,134.21Z" style="fill:#FF725E"></path><path d="M145.47,134.21a1.35,1.35,0,1,1-1.35-1.35A1.34,1.34,0,0,1,145.47,134.21Z" style="fill:#fff;opacity:0.2"></path><g style="opacity:0.2"><path d="M149,142.38c.06.1-.07.31-.39.59a5.76,5.76,0,0,1-1.51.88,9.47,9.47,0,0,1-1.17.38,9.58,9.58,0,0,1-1.4.21,9,9,0,0,1-6.13-1.85,9.91,9.91,0,0,1-1.05-1,6.87,6.87,0,0,1-.76-.95,5.65,5.65,0,0,1-.78-1.58c-.11-.4-.1-.65,0-.7s.74.59,1.7,1.49c.24.22.52.45.81.69a9.62,9.62,0,0,0,1,.7,9.84,9.84,0,0,0,5.17,1.56,11.72,11.72,0,0,0,1.2,0c.38,0,.74-.08,1.06-.14C148,142.46,148.84,142.16,149,142.38Z"></path></g><g style="opacity:0.2"><path d="M135.66,135a.83.83,0,0,1,.9.78.87.87,0,1,1-.9-.78Z"></path></g><path d="M115.67,290.59a24.22,24.22,0,0,0,6.16-7.26c2.6-.46,10,1.78,10,1.78l.93-2.71c-2.9-1-7.78-4.71-8.47-5.24a24,24,0,0,0,.59-7.47c1.92-1.71,6.21-2.51,6.21-2.51l-.57-2.81a24,24,0,0,1-6.57.25,24.67,24.67,0,0,0-2.18-5.16c.84-2.46,6.57-7.77,6.57-7.77l-1.87-2.17c-2.5,2.15-8.74,4.62-8.78,4.63a24.31,24.31,0,0,0-5.79-4.23c-.45-2.54,1-6.69,1-6.69l-2.71-.92a23.3,23.3,0,0,1-3,5.72,24.39,24.39,0,0,0-6.24-.91c-1.71-2.12-3.47-9.55-3.47-9.55l-2.84.56c.57,2.91-.11,8.54-.27,9.79a24.51,24.51,0,0,0-7.34,3.34,17.12,17.12,0,0,1-4.85-3.91l-2.17,1.93a23.52,23.52,0,0,1,3.3,5,24.68,24.68,0,0,0-3.93,5.2c-3.06.05-9.35-1.86-9.35-1.86L69,260.39c2.53.88,6.46,3.75,7.94,4.87a24.13,24.13,0,0,0-.75,8,17.32,17.32,0,0,1-5.77,2.2l.57,2.84a23.37,23.37,0,0,1,6-.32,24.58,24.58,0,0,0,4.79,9.13c-.61,2.86-4.46,8.79-4.46,8.79l2.37,1.66c1.5-2.13,5.17-5,6.73-6.17a24.77,24.77,0,0,0,5.77,3,24.42,24.42,0,0,0,3.19.89,17.62,17.62,0,0,1-.18,6.05l2.85.54a24.12,24.12,0,0,1,2.15-6.05,24.36,24.36,0,0,0,10-2c2.35,1.95,5.88,7.56,5.88,7.56l2.51-1.46C117.08,297.35,115.89,291.66,115.67,290.59Zm-7.84-42.33-.09,0Z" style="fill:#FF725E"></path><g style="opacity:0.2"><path d="M112.45,285.5c-.84-.94.23-3.18,1.06-6.42.12-.4.19-.84.3-1.27s.17-.9.27-1.36a26.91,26.91,0,0,0,.32-2.95,18.73,18.73,0,0,0-3.53-12.2A28.23,28.23,0,0,0,109,259c-.33-.34-.64-.69-1-1s-.62-.64-.94-.9c-2.43-2.31-4.53-3.62-4.32-4.87a1.15,1.15,0,0,1,.61-.77,3.62,3.62,0,0,1,1.49-.48,11.45,11.45,0,0,1,5.29.71,14.16,14.16,0,0,1,1.65.69,19.29,19.29,0,0,1,1.71.93,20,20,0,0,1,6.42,6.52,21.23,21.23,0,0,1,2.16,4.86,20.79,20.79,0,0,1,.77,5.26,20.3,20.3,0,0,1-.52,4.84,20.89,20.89,0,0,1-1.43,4.09c-.32.6-.62,1.18-1,1.71a17,17,0,0,1-1,1.46,11.45,11.45,0,0,1-4.09,3.43,4,4,0,0,1-1.53.39A1.2,1.2,0,0,1,112.45,285.5Z" style="fill:#fff"></path></g><path d="M98.59,236.48c.11.52-1.08,1.21-2.66,1.54a7,7,0,0,1-1.49.18c-.87,0-1.5-.16-1.57-.5-.11-.51,1.08-1.2,2.66-1.54S98.48,236,98.59,236.48Z" style="fill:#FF725E"></path><path d="M94.57,238.2a9.37,9.37,0,0,0,2.82-.63c.13.52.28,1.11.44,1.71a9.56,9.56,0,0,1-3.17-.45Z" style="opacity:0.30000000000000004"></path><path d="M82.57,245.81c.36.39-.32,1.58-1.52,2.67a8.32,8.32,0,0,1-1.19.92c-.74.45-1.37.61-1.61.36s.33-1.59,1.52-2.68S82.22,245.42,82.57,245.81Z" style="fill:#FF725E"></path><path d="M80,249.33a6.49,6.49,0,0,0,2.12-2c.35.41.76.83,1.2,1.26a9.27,9.27,0,0,1-2.92,1.2Z" style="opacity:0.30000000000000004"></path><path d="M69.61,256.07c.49.16.49,1.54,0,3.07a7.73,7.73,0,0,1-.6,1.38c-.42.77-.89,1.22-1.22,1.11-.5-.17-.49-1.54,0-3.08S69.11,255.91,69.61,256.07Z" style="fill:#FF725E"></path><path d="M69.06,260.41a9.1,9.1,0,0,0,.88-2.76l1.7.48a9.56,9.56,0,0,1-2,2.52Z" style="opacity:0.30000000000000004"></path><path d="M69.33,274.28c.51-.11,1.21,1.08,1.55,2.66a8.59,8.59,0,0,1,.18,1.49c0,.87-.15,1.5-.49,1.57-.51.11-1.21-1.08-1.55-2.66S68.82,274.39,69.33,274.28Z" style="fill:#FF725E"></path><path d="M71.06,278.3a6.48,6.48,0,0,0-.64-2.82c.53-.1,1.1-.24,1.7-.41a9.23,9.23,0,0,1-.44,3.12Z" style="opacity:0.30000000000000004"></path><path d="M75.73,295.8c.29-.44,1.61-.05,3,.86a8.44,8.44,0,0,1,1.16.95c.61.62.92,1.2.72,1.48-.29.44-1.62.05-3-.86S75.43,296.23,75.73,295.8Z" style="fill:#FF725E"></path><path d="M79.75,297.52a9.08,9.08,0,0,0-2.41-1.6c.29-.45.61-1,.93-1.5a9.39,9.39,0,0,1,1.87,2.6Z" style="opacity:0.30000000000000004"></path><path d="M93.7,302c.09-.52,1.46-.71,3-.43a7.61,7.61,0,0,1,1.45.39c.81.31,1.33.71,1.27,1-.09.52-1.46.71-3,.43S93.61,302.46,93.7,302Z" style="fill:#FF725E"></path><path d="M98.08,301.86a6.46,6.46,0,0,0-2.86-.47c.11-.53.19-1.11.27-1.72a9,9,0,0,1,2.72,1.58Z" style="opacity:0.30000000000000004"></path><path d="M115.3,302.84c-.27-.45.63-1.49,2-2.32a7.84,7.84,0,0,1,1.35-.65c.82-.3,1.47-.33,1.65,0,.27.45-.64,1.48-2,2.31S115.57,303.29,115.3,302.84Z" style="fill:#FF725E"></path><path d="M118.55,299.91a9.3,9.3,0,0,0-2.47,1.52c-.29-.45-.62-1-1-1.48a9.66,9.66,0,0,1,3.15-.6Z" style="opacity:0.30000000000000004"></path><path d="M89.49,271.24c-.65,1.77-2.14,2.86-3.33,2.43s-1.64-2.22-1-4,2.13-2.87,3.33-2.43S90.13,269.46,89.49,271.24Z" style="opacity:0.30000000000000004"></path><path d="M89.34,269.12c-.65,1.78-2.14,2.87-3.33,2.43s-1.65-2.22-1-4,2.13-2.86,3.33-2.43S90,267.34,89.34,269.12Z" style="fill:#FF725E"></path><path d="M89.34,269.12c-.65,1.78-2.14,2.87-3.33,2.43s-1.65-2.22-1-4,2.13-2.86,3.33-2.43S90,267.34,89.34,269.12Z" style="fill:#fff;opacity:0.2"></path><path d="M95.31,252.44c1.87-.27,3.53.54,3.7,1.8S97.82,256.73,96,257s-3.53-.54-3.71-1.8S93.43,252.7,95.31,252.44Z" style="opacity:0.30000000000000004"></path><path d="M95,250.4c1.87-.26,3.53.55,3.7,1.8s-1.19,2.5-3.06,2.76-3.53-.54-3.71-1.8S93.09,250.67,95,250.4Z" style="fill:#FF725E"></path><path d="M95,250.4c1.87-.26,3.53.55,3.7,1.8s-1.19,2.5-3.06,2.76-3.53-.54-3.71-1.8S93.09,250.67,95,250.4Z" style="fill:#fff;opacity:0.2"></path><path d="M92.35,283.21A2.25,2.25,0,1,1,91,280.32,2.25,2.25,0,0,1,92.35,283.21Z" style="opacity:0.30000000000000004"></path><path d="M92.76,282.07a2.25,2.25,0,1,1-1.35-2.88A2.24,2.24,0,0,1,92.76,282.07Z" style="fill:#FF725E"></path><path d="M92.76,282.07a2.25,2.25,0,1,1-1.35-2.88A2.24,2.24,0,0,1,92.76,282.07Z" style="fill:#fff;opacity:0.30000000000000004"></path><path d="M113.23,269.48a2.77,2.77,0,1,1,1.18-3.74A2.78,2.78,0,0,1,113.23,269.48Z" style="opacity:0.30000000000000004"></path><path d="M114.54,268.79a2.77,2.77,0,1,1,1.18-3.73A2.76,2.76,0,0,1,114.54,268.79Z" style="fill:#FF725E"></path><path d="M114.54,268.79a2.77,2.77,0,1,1,1.18-3.73A2.76,2.76,0,0,1,114.54,268.79Z" style="fill:#fff;opacity:0.30000000000000004"></path><path d="M102.38,289.2a1.65,1.65,0,1,1-1-2.12A1.65,1.65,0,0,1,102.38,289.2Z" style="opacity:0.30000000000000004"></path><path d="M102.68,288.37a1.65,1.65,0,1,1-1-2.12A1.66,1.66,0,0,1,102.68,288.37Z" style="fill:#FF725E"></path><path d="M102.68,288.37a1.65,1.65,0,1,1-1-2.12A1.66,1.66,0,0,1,102.68,288.37Z" style="fill:#fff;opacity:0.30000000000000004"></path><path d="M132.11,286.67c-.49-.16-.49-1.52,0-3a7.83,7.83,0,0,1,.59-1.36c.42-.75.88-1.2,1.2-1.09.5.16.49,1.52,0,3S132.6,286.83,132.11,286.67Z" style="fill:#FF725E"></path><path d="M132.65,282.38a9.12,9.12,0,0,0-.87,2.73l-1.68-.48a9.54,9.54,0,0,1,2-2.48Z" style="opacity:0.30000000000000004"></path><path d="M132.12,268.36c-.51.11-1.19-1.07-1.53-2.63a7.41,7.41,0,0,1-.19-1.47c0-.86.16-1.48.49-1.55.51-.11,1.19,1.07,1.53,2.63S132.62,268.25,132.12,268.36Z" style="fill:#FF725E"></path><path d="M130.41,264.39a6.28,6.28,0,0,0,.63,2.79c-.52.1-1.09.23-1.68.4a9.26,9.26,0,0,1,.43-3.09Z" style="opacity:0.30000000000000004"></path><path d="M129.81,252.19c-.39.34-1.56-.34-2.62-1.54a8,8,0,0,1-.89-1.19c-.44-.74-.59-1.36-.33-1.59s1.56.34,2.62,1.54S130.19,251.85,129.81,252.19Z" style="fill:#FF725E"></path><path d="M126.37,249.57a9,9,0,0,0,1.92,2.12L127,252.9a9.6,9.6,0,0,1-1.16-3Z" style="opacity:0.30000000000000004"></path><path d="M114.4,242.9c-.16.49-1.52.49-3,0a7.62,7.62,0,0,1-1.37-.59c-.75-.41-1.2-.87-1.09-1.2.16-.49,1.52-.49,3,0S114.56,242.4,114.4,242.9Z" style="fill:#FF725E"></path><path d="M110.1,242.38a6.34,6.34,0,0,0,2.74.85c-.18.5-.35,1.06-.5,1.65a9.14,9.14,0,0,1-2.45-1.92Z" style="opacity:0.30000000000000004"></path><path d="M110,285.77c-1.4,1.27-3.22,1.53-4.08.59s-.41-2.73,1-4,3.23-1.54,4.08-.6S111.43,284.5,110,285.77Z" style="opacity:0.30000000000000004"></path><path d="M111.28,285.23c-1.4,1.27-3.23,1.54-4.09.6s-.41-2.74,1-4,3.23-1.53,4.08-.59S112.67,284,111.28,285.23Z" style="fill:#FF725E"></path><path d="M111.28,285.23c-1.4,1.27-3.23,1.54-4.09.6s-.41-2.74,1-4,3.23-1.53,4.08-.59S112.67,284,111.28,285.23Z" style="fill:#fff;opacity:0.30000000000000004"></path><circle cx="100.76" cy="270.82" r="3.42" transform="translate(-178.4 345.42) rotate(-84.55)" style="opacity:0.30000000000000004"></circle><path d="M104.65,270.11a3.42,3.42,0,1,1-2.05-4.38A3.41,3.41,0,0,1,104.65,270.11Z" style="fill:#FF725E"></path><path d="M104.65,270.11a3.42,3.42,0,1,1-2.05-4.38A3.41,3.41,0,0,1,104.65,270.11Z" style="fill:#fff;opacity:0.2"></path><g style="opacity:0.2"><path d="M105.94,292.6c0,.29-.44.68-1.43,1.07a14.19,14.19,0,0,1-4.38.79,19.53,19.53,0,0,1-3.1-.11,22.11,22.11,0,0,1-3.52-.7,22.54,22.54,0,0,1-13-9.71,22.11,22.11,0,0,1-1.67-3.17,21.32,21.32,0,0,1-1-2.94,14.11,14.11,0,0,1-.48-4.43c.08-1.06.32-1.64.61-1.67.65-.07,1.28,2,2.79,5,.37.74.82,1.53,1.32,2.36s1.09,1.67,1.76,2.52a26,26,0,0,0,4.91,4.86,25.75,25.75,0,0,0,6.06,3.32c1,.4,2,.69,2.91,1s1.82.45,2.64.59C103.61,292,105.82,292,105.94,292.6Z"></path></g><g style="opacity:0.2"><path d="M80.58,263.51a2.09,2.09,0,1,1-2.72,1.34A2.14,2.14,0,0,1,80.58,263.51Z"></path></g><path d="M202.23,425.78a31.64,31.64,0,0,0,2.7-12.14c2.74-2.11,12.59-4,12.59-4L217,406c-4,.6-11.86-.71-13-.91a31.72,31.72,0,0,0-3.86-9c1.18-3.14,5.66-6.68,5.66-6.68l-2.37-2.9a30.69,30.69,0,0,1-7.45,4.28,32.31,32.31,0,0,0-5.66-4.64c-.52-3.35,2.88-13,2.88-13l-3.48-1.37c-1.59,4-7.3,10.65-7.34,10.69a31.82,31.82,0,0,0-9.28-1.37c-2-2.66-2.92-8.34-2.92-8.34l-3.69.59a30.67,30.67,0,0,1,0,8.45,32.27,32.27,0,0,0-7.77,2.74c-3.28-1.41-9.82-8.94-9.82-8.94L145.91,378c2.42,3,5.06,9.94,5.63,11.49a31.88,31.88,0,0,0-6.46,8.32c-3.34.27-8-1.57-8-1.57l-1.33,3.55a31,31,0,0,1,6.88,3.81,31.82,31.82,0,0,0-1.39,8.4c-3.51,1.93-11.94,3.54-11.94,3.54l.57,3.74c3.46-.52,9.76.41,12.15.81a31.68,31.68,0,0,0,4,9.73c-1.48,3-5.34,6.05-5.34,6.05l2.39,2.93a31.11,31.11,0,0,1,6.77-4A31.7,31.7,0,0,0,161,442.37c1,3.69.18,12.88.18,12.88l3.76.48c.44-3.38,2.94-8.92,4-11.23a31.49,31.49,0,0,0,8.51,0,32.4,32.4,0,0,0,4.23-.91c2.16,2.53,3.48,7.11,3.48,7.11l3.62-1.11a31,31,0,0,1-1.18-8.31,31.76,31.76,0,0,0,10.31-8.39c3.9.82,11.4,5.16,11.4,5.16l2-3.2C208,432.75,203.13,426.89,202.23,425.78Zm-34.81-44.19-.12,0Z" style="fill:#FF725E"></path><g style="opacity:0.2"><path d="M195.4,421.85c-1.55-.58-1.67-3.81-2.68-8.07-.09-.53-.28-1.09-.41-1.65s-.35-1.14-.52-1.73a35.08,35.08,0,0,0-1.43-3.61,24.35,24.35,0,0,0-11.5-12,33.07,33.07,0,0,0-3.55-1.58c-.58-.19-1.15-.41-1.71-.58s-1.1-.37-1.63-.49c-4.21-1.18-7.44-1.43-8-3a1.55,1.55,0,0,1,.24-1.26,5,5,0,0,1,1.43-1.46,14.92,14.92,0,0,1,6.55-2.39,18.85,18.85,0,0,1,2.33-.21c.82,0,1.66,0,2.55,0a26.76,26.76,0,0,1,5.57,1.05,26.19,26.19,0,0,1,5.81,2.58,25.58,25.58,0,0,1,9.54,9.93A26.39,26.39,0,0,1,201.21,409c0,.88,0,1.73-.06,2.54a20,20,0,0,1-.31,2.32,14.88,14.88,0,0,1-2.64,6.45,5.09,5.09,0,0,1-1.53,1.38A1.53,1.53,0,0,1,195.4,421.85Z" style="fill:#fff"></path></g><path d="M149.58,373.59c.44.53-.53,2.05-2.15,3.4a11,11,0,0,1-1.61,1.12c-1,.54-1.83.72-2.12.37-.44-.53.52-2.05,2.14-3.4S149.14,373.06,149.58,373.59Z" style="fill:#FF725E"></path><path d="M146,378a12,12,0,0,0,2.89-2.45c.46.53,1,1.12,1.55,1.72,0,0-2.65,1.42-4,1.4Z" style="opacity:0.30000000000000004"></path><path d="M136.72,394.12c.64.23.58,2-.13,4a10.19,10.19,0,0,1-.83,1.78c-.58,1-1.21,1.55-1.64,1.4-.64-.23-.58-2,.13-4S136.07,393.88,136.72,394.12Z" style="fill:#FF725E"></path><path d="M135.85,399.77a8.44,8.44,0,0,0,1.24-3.58c.66.26,1.39.5,2.16.73,0,0-1.51,2.51-2.64,3.16Z" style="opacity:0.30000000000000004"></path><path d="M128,413.86c.68-.11,1.51,1.49,1.86,3.57a9.78,9.78,0,0,1,.15,1.95c0,1.14-.29,1.95-.74,2-.68.12-1.51-1.48-1.86-3.56S127.28,414,128,413.86Z" style="fill:#FF725E"></path><path d="M130,419.22a12.17,12.17,0,0,0-.66-3.73l2.26-.47s-.11,3-.77,4.11Z" style="opacity:0.30000000000000004"></path><path d="M138.72,435.1c.52-.44,2.05.51,3.4,2.13a10.26,10.26,0,0,1,1.12,1.61c.56,1,.73,1.83.39,2.12-.53.44-2-.52-3.41-2.13S138.19,435.54,138.72,435.1Z" style="fill:#FF725E"></path><path d="M143.16,438.7a8.42,8.42,0,0,0-2.46-2.88c.55-.44,1.13-.95,1.72-1.5,0,0,1.4,2.57,1.39,3.87Z" style="opacity:0.30000000000000004"></path><path d="M159.19,456.09c.08-.68,1.85-1,3.94-.8a10.92,10.92,0,0,1,1.93.4c1.08.34,1.78.82,1.73,1.27-.08.68-1.84,1-3.94.8S159.12,456.77,159.19,456.09Z" style="fill:#FF725E"></path><path d="M164.9,455.64a12.11,12.11,0,0,0-3.77-.39c.06-.7.12-1.5.17-2.3,0,0,2.85.93,3.74,1.87Z" style="opacity:0.30000000000000004"></path><path d="M183.72,452.27c-.21-.65,1.25-1.7,3.26-2.35a11.24,11.24,0,0,1,1.92-.43c1.13-.13,2,0,2.1.45.21.65-1.25,1.7-3.26,2.35S183.93,452.93,183.72,452.27Z" style="fill:#FF725E"></path><path d="M188.73,449.51a8.34,8.34,0,0,0-3.59,1.2c-.2-.68-.45-1.41-.74-2.16,0,0,2.91-.33,4.11.17Z" style="opacity:0.30000000000000004"></path><path d="M209.24,440.18c-.59-.36-.17-2.11.93-3.91a9.82,9.82,0,0,1,1.17-1.58c.76-.85,1.49-1.28,1.88-1,.59.35.17,2.11-.93,3.91S209.82,440.53,209.24,440.18Z" style="fill:#FF725E"></path><path d="M211.22,434.81a12.32,12.32,0,0,0-1.93,3.25l-2-1.12s2-2.2,3.27-2.6Z" style="opacity:0.30000000000000004"></path><path d="M160.18,419.32c.33,2.44-.73,4.61-2.37,4.83s-3.26-1.57-3.59-4,.72-4.62,2.37-4.84S159.84,416.87,160.18,419.32Z" style="opacity:0.30000000000000004"></path><path d="M158.71,417c.34,2.45-.72,4.62-2.37,4.84s-3.25-1.57-3.59-4,.73-4.61,2.38-4.83S158.38,414.52,158.71,417Z" style="fill:#FF725E"></path><path d="M158.71,417c.34,2.45-.72,4.62-2.37,4.84s-3.25-1.57-3.59-4,.73-4.61,2.38-4.83S158.38,414.52,158.71,417Z" style="fill:#fff;opacity:0.2"></path><path d="M155.47,394c2-1.44,4.42-1.52,5.39-.17s.13,3.61-1.87,5.05-4.42,1.52-5.39.17S153.47,395.48,155.47,394Z" style="opacity:0.30000000000000004"></path><path d="M153.84,391.89c2-1.44,4.42-1.52,5.39-.17s.13,3.61-1.87,5-4.42,1.52-5.39.17S151.84,393.34,153.84,391.89Z" style="fill:#FF725E"></path><path d="M153.84,391.89c2-1.44,4.42-1.52,5.39-.17s.13,3.61-1.87,5-4.42,1.52-5.39.17S151.84,393.34,153.84,391.89Z" style="fill:#fff;opacity:0.2"></path><path d="M170.77,431.42a2.94,2.94,0,1,1-3.32-2.52A2.94,2.94,0,0,1,170.77,431.42Z" style="opacity:0.30000000000000004"></path><path d="M170.55,429.86a2.94,2.94,0,1,1-3.31-2.52A2.93,2.93,0,0,1,170.55,429.86Z" style="fill:#FF725E"></path><path d="M170.55,429.86a2.94,2.94,0,1,1-3.31-2.52A2.93,2.93,0,0,1,170.55,429.86Z" style="fill:#fff;opacity:0.30000000000000004"></path><path d="M186.56,402.85a3.62,3.62,0,1,1-.91-5A3.62,3.62,0,0,1,186.56,402.85Z" style="opacity:0.30000000000000004"></path><path d="M187.67,401.26a3.62,3.62,0,1,1-.91-5A3.62,3.62,0,0,1,187.67,401.26Z" style="fill:#FF725E"></path><path d="M187.67,401.26a3.62,3.62,0,1,1-.91-5A3.62,3.62,0,0,1,187.67,401.26Z" style="fill:#fff;opacity:0.30000000000000004"></path><path d="M186,432.25a2.16,2.16,0,1,1-2.44-1.84A2.16,2.16,0,0,1,186,432.25Z" style="opacity:0.30000000000000004"></path><path d="M185.85,431.11a2.16,2.16,0,0,1-4.28.59,2.16,2.16,0,1,1,4.28-.59Z" style="fill:#FF725E"></path><path d="M185.85,431.11a2.16,2.16,0,0,1-4.28.59,2.16,2.16,0,1,1,4.28-.59Z" style="fill:#fff;opacity:0.30000000000000004"></path><path d="M218.85,411.26c-.67.11-1.49-1.47-1.83-3.53a9.54,9.54,0,0,1-.15-1.93c0-1.12.29-1.92.73-2,.67-.12,1.49,1.46,1.84,3.52S219.52,411.14,218.85,411.26Z" style="fill:#FF725E"></path><path d="M216.86,406a12.25,12.25,0,0,0,.66,3.68c-.68.13-1.45.29-2.23.47,0,0,.1-3,.76-4.07Z" style="opacity:0.30000000000000004"></path><path d="M207.73,390.07c-.52.44-2-.51-3.37-2.11a9.52,9.52,0,0,1-1.1-1.59c-.55-1-.73-1.8-.38-2.09.52-.43,2,.51,3.36,2.11S208.25,389.64,207.73,390.07Z" style="fill:#FF725E"></path><path d="M203.34,386.52a8.23,8.23,0,0,0,2.43,2.84c-.55.43-1.12.93-1.7,1.48,0,0-1.39-2.54-1.38-3.83Z" style="opacity:0.30000000000000004"></path><path d="M195.23,372.78c-.24.63-2,.55-4-.19a10.58,10.58,0,0,1-1.75-.84c-.95-.59-1.51-1.22-1.35-1.64.24-.63,2-.55,4,.19S195.46,372.14,195.23,372.78Z" style="fill:#FF725E"></path><path d="M189.65,371.83a12.07,12.07,0,0,0,3.52,1.29c-.23.65-.48,1.4-.72,2.16,0,0-2.51-1.58-3.13-2.7Z" style="opacity:0.30000000000000004"></path><path d="M171.75,371.4c.12.66-1.46,1.49-3.51,1.84a10.51,10.51,0,0,1-1.93.16c-1.13,0-1.93-.28-2-.73-.12-.66,1.46-1.49,3.51-1.84S171.64,370.73,171.75,371.4Z" style="fill:#FF725E"></path><path d="M166.47,373.4a8.2,8.2,0,0,0,3.68-.67c.1.69.25,1.44.43,2.21,0,0-2.9-.08-4-.73Z" style="opacity:0.30000000000000004"></path><path d="M192.77,423.63c-.84,2.32-2.8,3.74-4.36,3.17s-2.13-2.91-1.29-5.23,2.8-3.74,4.36-3.17S193.62,421.31,192.77,423.63Z" style="opacity:0.30000000000000004"></path><path d="M193.88,422.26c-.84,2.32-2.8,3.73-4.36,3.16s-2.13-2.91-1.29-5.23,2.8-3.73,4.36-3.16S194.73,419.94,193.88,422.26Z" style="fill:#FF725E"></path><path d="M193.88,422.26c-.84,2.32-2.8,3.73-4.36,3.16s-2.13-2.91-1.29-5.23,2.8-3.73,4.36-3.16S194.73,419.94,193.88,422.26Z" style="fill:#fff;opacity:0.30000000000000004"></path><path d="M177.39,411.37a4.47,4.47,0,1,1-5-3.82A4.49,4.49,0,0,1,177.39,411.37Z" style="opacity:0.30000000000000004"></path><path d="M177,408.79a4.47,4.47,0,1,1-5-3.81A4.46,4.46,0,0,1,177,408.79Z" style="fill:#FF725E"></path><path d="M177,408.79a4.47,4.47,0,1,1-5-3.81A4.46,4.46,0,0,1,177,408.79Z" style="fill:#fff;opacity:0.2"></path><g style="opacity:0.2"><path d="M192.19,434c.24.31-.09,1.06-1,2.1a18.52,18.52,0,0,1-4.58,3.59,27.79,27.79,0,0,1-3.66,1.76,29.73,29.73,0,0,1-29.33-4.63,29.6,29.6,0,0,1-2.94-2.8,18.49,18.49,0,0,1-3.25-4.83c-.55-1.28-.63-2.09-.31-2.31.71-.47,2.72,1.6,6.28,4.12.88.63,1.89,1.27,3,1.92a37.88,37.88,0,0,0,3.55,1.85,32.62,32.62,0,0,0,17.67,2.79c1.39-.14,2.71-.41,3.95-.66s2.38-.59,3.41-.92C189.12,434.7,191.67,433.36,192.19,434Z"></path></g><g style="opacity:0.2"><path d="M145.17,415.8a2.73,2.73,0,1,1-2.33,3.2A2.8,2.8,0,0,1,145.17,415.8Z"></path></g><path d="M332.59,283.76a68.7,68.7,0,0,0,4.78-26.6c5.76-4.83,27-9.78,27-9.78l-1.56-8c-8.55,1.65-25.82-.5-28.27-.82a68.45,68.45,0,0,0-9.17-19.2c2.29-6.93,11.68-15,11.68-15l-5.38-6.08a68.11,68.11,0,0,1-15.81,10,69.71,69.71,0,0,0-12.7-9.58c-1.41-7.24,5.1-28.44,5.1-28.44l-7.68-2.66c-3.08,8.82-14.9,23.76-15,23.86a68.69,68.69,0,0,0-20.27-2.16c-4.7-5.59-7.08-17.84-7.08-17.84l-8,1.6a67.13,67.13,0,0,1,.72,18.35A69.07,69.07,0,0,0,234.36,198c-7.23-2.79-22.11-18.54-22.11-18.54l-6.17,5.43c5.53,6.33,11.87,21.13,13.25,24.43A69.54,69.54,0,0,0,206,228c-7.23.87-17.47-2.69-17.47-2.69L186,233.11a67.24,67.24,0,0,1,15.27,7.67A68.83,68.83,0,0,0,199,259.15c-7.45,4.48-25.61,8.73-25.61,8.73L175,276c7.46-1.44,21.22,0,26.43.67A68.82,68.82,0,0,0,211,297.4C208,304,199.9,311,199.9,311l5.46,6.16a67.38,67.38,0,0,1,14.33-9.35,69.43,69.43,0,0,0,24.75,15.63c2.57,7.9,1.54,27.93,1.54,27.93l8.19.72c.67-7.37,5.61-19.64,7.77-24.73a65.9,65.9,0,0,0,27.58-3.1c4.91,5.3,8.18,15.13,8.18,15.13l7.76-2.73a67.61,67.61,0,0,1-3.3-17.93,69,69,0,0,0,21.65-19.13c8.54,1.44,25.2,10.2,25.2,10.2l4.08-7.14C345.65,298.37,334.64,286.09,332.59,283.76ZM253.1,190.9l-.26.06A2.44,2.44,0,0,1,253.1,190.9Z" style="fill:#FF725E"></path><g style="opacity:0.2"><path d="M317.42,275.83c-3.41-1.12-3.95-8.13-6.53-17.29-.26-1.14-.72-2.33-1.05-3.54s-.86-2.45-1.28-3.72a76.31,76.31,0,0,0-3.42-7.71,53,53,0,0,0-26-24.95,76.36,76.36,0,0,0-7.85-3.1c-1.28-.37-2.53-.79-3.76-1.12s-2.43-.69-3.59-.9c-9.25-2.19-16.28-2.45-17.54-5.81a3.36,3.36,0,0,1,.39-2.76,11,11,0,0,1,3-3.31c2.87-2.31,7.64-4.55,14-5.76a44.53,44.53,0,0,1,5-.67c1.76-.15,3.61-.14,5.53-.13a56.78,56.78,0,0,1,25,6.87A55.76,55.76,0,0,1,321,222.64a57.32,57.32,0,0,1,5.61,12.63,56.49,56.49,0,0,1,2.3,12.09c.09,1.93.18,3.77.1,5.54a44,44,0,0,1-.46,5.06c-.94,6.41-3,11.28-5.17,14.24a10.89,10.89,0,0,1-3.19,3.12A3.35,3.35,0,0,1,317.42,275.83Z" style="fill:#fff"></path></g><path d="M213.66,175.12c1,1.1-.95,4.49-4.36,7.57a22.4,22.4,0,0,1-3.4,2.56c-2.12,1.28-3.91,1.74-4.57,1-1-1.1.95-4.49,4.36-7.56S212.66,174,213.66,175.12Z" style="fill:#FF725E"></path><path d="M206.2,185.07a26.47,26.47,0,0,0,6.05-5.58c1.06,1.09,2.26,2.34,3.51,3.58,0,0-5.61,3.32-8.43,3.4Z" style="opacity:0.30000000000000004"></path><path d="M187.56,220.82c1.42.45,1.45,4.36.07,8.73a22.69,22.69,0,0,1-1.63,3.94c-1.18,2.17-2.49,3.47-3.44,3.17-1.42-.44-1.45-4.35-.07-8.73S186.14,220.37,187.56,220.82Z" style="fill:#FF725E"></path><path d="M186.17,233.17s2.41-4.09,2.39-7.87c1.45.5,3.05,1,4.75,1.39,0,0-3.07,5.58-5.46,7.08Z" style="opacity:0.30000000000000004"></path><path d="M170.3,264.47c1.46-.31,3.4,3.08,4.35,7.57a22.61,22.61,0,0,1,.5,4.23c0,2.48-.47,4.25-1.43,4.46-1.46.3-3.4-3.09-4.35-7.58S168.84,264.78,170.3,264.47Z" style="fill:#FF725E"></path><path d="M175.15,275.91a26.45,26.45,0,0,0-1.78-8c1.47-.36,3.16-.77,4.86-1.23,0,0,0,6.52-1.3,9Z" style="opacity:0.30000000000000004"></path><path d="M195.53,309.61c1.1-1,4.5.94,7.58,4.33a22.62,22.62,0,0,1,2.58,3.4c1.29,2.11,1.75,3.9,1,4.56-1.1,1-4.5-.93-7.58-4.33S194.43,310.62,195.53,309.61Z" style="fill:#FF725E"></path><path d="M205.5,317s-2.32-4.14-5.6-6c1.17-1,2.37-2.15,3.6-3.41,0,0,3.28,5.47,3.37,8.29Z" style="opacity:0.30000000000000004"></path><path d="M241.85,353.38c.11-1.49,3.91-2.42,8.48-2.08a21.64,21.64,0,0,1,4.21.69c2.39.64,4,1.62,3.88,2.61-.11,1.48-3.91,2.41-8.48,2.08S241.74,354.86,241.85,353.38Z" style="fill:#FF725E"></path><path d="M254.19,351.89a26.4,26.4,0,0,0-8.21-.52c.07-1.52.13-3.25.16-5,0,0,6.28,1.77,8.29,3.74Z" style="opacity:0.30000000000000004"></path><path d="M294.76,342.91c-.51-1.4,2.57-3.81,6.88-5.39a22.59,22.59,0,0,1,4.11-1.1c2.45-.4,4.27-.15,4.61.78.52,1.4-2.56,3.81-6.87,5.39S295.28,344.31,294.76,342.91Z" style="fill:#FF725E"></path><path d="M305.4,336.48s-4.71.58-7.7,2.91c-.49-1.46-1.1-3-1.8-4.62,0,0,6.3-1,9,0Z" style="opacity:0.30000000000000004"></path><path d="M349.09,314.39c-1.3-.73-.55-4.56,1.67-8.58a22.93,22.93,0,0,1,2.39-3.52c1.59-1.9,3.14-2.91,4-2.43,1.3.72.55,4.56-1.67,8.57S350.39,315.11,349.09,314.39Z" style="fill:#FF725E"></path><path d="M352.92,302.56A26.26,26.26,0,0,0,349,309.8c-1.36-.7-2.9-1.49-4.49-2.26,0,0,4.24-5,6.88-6Z" style="opacity:0.30000000000000004"></path><path d="M240.72,273.45c.95,5.28-1.16,10.08-4.72,10.71s-7.19-3.12-8.14-8.4S229,265.68,232.58,265,239.77,268.17,240.72,273.45Z" style="opacity:0.30000000000000004"></path><path d="M237.34,268.47c.94,5.28-1.17,10.08-4.72,10.72s-7.2-3.13-8.15-8.41,1.17-10.08,4.72-10.71S236.39,263.19,237.34,268.47Z" style="fill:#FF725E"></path><path d="M237.34,268.47c.94,5.28-1.17,10.08-4.72,10.72s-7.2-3.13-8.15-8.41,1.17-10.08,4.72-10.71S236.39,263.19,237.34,268.47Z" style="fill:#fff;opacity:0.2"></path><path d="M228.27,219c4.22-3.31,9.45-3.69,11.68-.85s.61,7.82-3.62,11.13-9.44,3.69-11.67.85S224.05,222.3,228.27,219Z" style="opacity:0.30000000000000004"></path><path d="M224.54,214.47c4.23-3.3,9.45-3.68,11.68-.84s.61,7.82-3.61,11.13-9.45,3.69-11.68.85S220.32,217.78,224.54,214.47Z" style="fill:#FF725E"></path><path d="M224.54,214.47c4.23-3.3,9.45-3.68,11.68-.84s.61,7.82-3.61,11.13-9.45,3.69-11.68.85S220.32,217.78,224.54,214.47Z" style="fill:#fff;opacity:0.2"></path><path d="M264.79,298.78a6.4,6.4,0,1,1-7.42-5.16A6.41,6.41,0,0,1,264.79,298.78Z" style="opacity:0.30000000000000004"></path><path d="M264.19,295.41a6.4,6.4,0,1,1-7.43-5.16A6.41,6.41,0,0,1,264.19,295.41Z" style="fill:#FF725E"></path><path d="M264.19,295.41a6.4,6.4,0,1,1-7.43-5.16A6.41,6.41,0,0,1,264.19,295.41Z" style="fill:#fff;opacity:0.30000000000000004"></path><circle cx="289.91" cy="231.14" r="7.86" transform="matrix(0.98, -0.22, 0.22, 0.98, -43.68, 69.31)" style="opacity:0.30000000000000004"></circle><path d="M298.8,231.81A7.86,7.86,0,1,1,296.39,221,7.86,7.86,0,0,1,298.8,231.81Z" style="fill:#FF725E"></path><path d="M298.8,231.81A7.86,7.86,0,1,1,296.39,221,7.86,7.86,0,0,1,298.8,231.81Z" style="fill:#fff;opacity:0.30000000000000004"></path><path d="M298,299.24a4.69,4.69,0,1,1-5.45-3.78A4.7,4.7,0,0,1,298,299.24Z" style="opacity:0.30000000000000004"></path><path d="M297.5,296.77a4.69,4.69,0,1,1-5.44-3.78A4.7,4.7,0,0,1,297.5,296.77Z" style="fill:#FF725E"></path><path d="M297.5,296.77a4.69,4.69,0,1,1-5.44-3.78A4.7,4.7,0,0,1,297.5,296.77Z" style="fill:#fff;opacity:0.30000000000000004"></path><path d="M367.39,250.75c-1.44.3-3.36-3.05-4.29-7.48a22.12,22.12,0,0,1-.5-4.19c0-2.44.47-4.19,1.42-4.39,1.44-.3,3.36,3.05,4.29,7.48S368.83,250.45,367.39,250.75Z" style="fill:#FF725E"></path><path d="M362.61,239.44a26.14,26.14,0,0,0,1.75,7.94c-1.46.35-3.13.76-4.8,1.21,0,0,0-6.44,1.29-8.89Z" style="opacity:0.30000000000000004"></path><path d="M341.36,205.75c-1.09,1-4.44-.93-7.49-4.28a22.66,22.66,0,0,1-2.54-3.36c-1.27-2.09-1.73-3.85-1-4.51,1.09-1,4.45.93,7.49,4.28S342.45,204.76,341.36,205.75Z" style="fill:#FF725E"></path><path d="M331.51,198.42s2.29,4.09,5.53,6c-1.14,1-2.33,2.13-3.55,3.37,0,0-3.24-5.4-3.33-8.19Z" style="opacity:0.30000000000000004"></path><path d="M312.69,169.31c-.46,1.39-4.33,1.37-8.63-.06a22.48,22.48,0,0,1-3.86-1.67c-2.14-1.2-3.4-2.51-3.09-3.44.46-1.39,4.33-1.37,8.63.06S313.15,167.91,312.69,169.31Z" style="fill:#FF725E"></path><path d="M300.51,167.75a26.09,26.09,0,0,0,7.74,2.48c-.43,1.44-.91,3.09-1.37,4.76,0,0-5.58-3.21-7-5.59Z" style="opacity:0.30000000000000004"></path><path d="M261.61,168.39c.31,1.44-3,3.38-7.47,4.32a22.09,22.09,0,0,1-4.18.51c-2.44.05-4.2-.44-4.4-1.4-.31-1.43,3-3.37,7.47-4.32S261.3,167,261.61,168.39Z" style="fill:#FF725E"></path><path d="M250.32,173.22s4.69.07,7.93-1.79c.27,1.49.66,3.1,1.12,4.77,0,0-6.3.08-8.75-1.24Z" style="opacity:0.30000000000000004"></path><path d="M311.87,279.93c-1.63,5.11-5.74,8.36-9.18,7.26s-4.9-6.13-3.26-11.24,5.74-8.36,9.18-7.26S313.51,274.82,311.87,279.93Z" style="opacity:0.30000000000000004"></path><path d="M314.16,276.85c-1.63,5.11-5.74,8.36-9.18,7.26s-4.9-6.13-3.27-11.24,5.75-8.36,9.19-7.26S315.8,271.74,314.16,276.85Z" style="fill:#FF725E"></path><path d="M314.16,276.85c-1.63,5.11-5.74,8.36-9.18,7.26s-4.9-6.13-3.27-11.24,5.75-8.36,9.19-7.26S315.8,271.74,314.16,276.85Z" style="fill:#fff;opacity:0.30000000000000004"></path><path d="M277.38,254.67a9.71,9.71,0,1,1-11.27-7.85A9.71,9.71,0,0,1,277.38,254.67Z" style="opacity:0.30000000000000004"></path><path d="M276.38,249.11a9.71,9.71,0,1,1-11.27-7.84A9.71,9.71,0,0,1,276.38,249.11Z" style="fill:#FF725E"></path><path d="M276.38,249.11a9.71,9.71,0,1,1-11.27-7.84A9.71,9.71,0,0,1,276.38,249.11Z" style="fill:#fff;opacity:0.2"></path><g style="opacity:0.30000000000000004"><path d="M311.53,302.54c.55.63-.09,2.3-2,4.65a40.37,40.37,0,0,1-9.64,8.19,58.57,58.57,0,0,1-7.78,4.14,63.65,63.65,0,0,1-9.64,3.29,64.5,64.5,0,0,1-54.44-10.74,58.67,58.67,0,0,1-6.63-5.82,40.5,40.5,0,0,1-7.5-10.19c-1.29-2.72-1.54-4.49-.86-5,1.49-1.09,6,3.23,14,8.38,2,1.29,4.21,2.59,6.61,3.91a85.13,85.13,0,0,0,7.88,3.7,70.69,70.69,0,0,0,38.6,4.49,84.47,84.47,0,0,0,8.52-1.79c2.64-.73,5.11-1.48,7.33-2.29C304.91,304.29,310.34,301.14,311.53,302.54Z"></path></g><g style="opacity:0.30000000000000004"><path d="M207.83,267.14a5.93,5.93,0,1,1-4.77,7.16A6.09,6.09,0,0,1,207.83,267.14Z"></path></g><path d="M415.32,106.33a36.3,36.3,0,0,0-3.52-13.84c1.72-3.58,10.85-10.61,10.85-10.61l-2.5-3.49c-3.75,2.66-12.53,5.4-13.78,5.78a36.47,36.47,0,0,0-8.61-7.23c-.42-3.83,2.34-9.77,2.34-9.77l-3.92-1.75a36.35,36.35,0,0,1-5.43,8.25,36.7,36.7,0,0,0-8.2-1.83c-2.27-3.18-3.77-14.8-3.77-14.8l-4.28.4c.45,4.92-2,14.69-2,14.75a36.33,36.33,0,0,0-10.23,3.4c-3.48-1.66-7.3-7-7.3-7l-3.49,2.51a35,35,0,0,1,4.36,8.68,36.12,36.12,0,0,0-6.55,6.83c-4.09.24-14.69-4.08-14.69-4.08l-1.78,4c4,1.84,10.33,7.57,11.72,8.86a36.5,36.5,0,0,0-2.32,11.87c-3.29,2-9,2.53-9,2.53l.47,4.32a35.6,35.6,0,0,1,9,.35,36.32,36.32,0,0,0,2.92,9.33c-2.61,3.79-10.41,9.81-10.41,9.81l2.52,3.53c3.28-2.32,10.22-4.63,12.86-5.46a36.29,36.29,0,0,0,9.16,7.9c0,3.84-2.35,9-2.35,9l4,1.77a35.75,35.75,0,0,1,4.85-7.63,37,37,0,0,0,15.33,2.1c3,3.24,6.85,13.1,6.85,13.1l4.1-1.45c-1.3-3.69-1.6-10.67-1.67-13.59a34.74,34.74,0,0,0,12.59-7.53c3.52,1.48,7.24,5.49,7.24,5.49l3.14-3a35.79,35.79,0,0,1-5.51-7.91,36.58,36.58,0,0,0,6.23-13.94c4.42-1.17,14.35-.6,14.35-.6l.41-4.33C424.8,110.51,416.82,107,415.32,106.33ZM356.77,79l-.11.09Z" style="fill:#FF725E"></path><g style="opacity:0.2"><path d="M406.29,105.83c-1.89.21-3.68-3-6.93-6.88-.37-.5-.85-1-1.28-1.48s-.94-1-1.42-1.51a42.58,42.58,0,0,0-3.34-3,28,28,0,0,0-18-6.31,39.82,39.82,0,0,0-4.45.22c-.7.11-1.4.18-2.06.29s-1.32.2-1.92.35c-4.94,1-8.37,2.38-9.71,1a1.77,1.77,0,0,1-.42-1.41,5.85,5.85,0,0,1,.72-2.25A17.05,17.05,0,0,1,363,79.1a24.73,24.73,0,0,1,2.28-1.43c.82-.46,1.71-.86,2.64-1.27a29.69,29.69,0,0,1,6.25-1.8,30,30,0,0,1,7.29-.37,29.44,29.44,0,0,1,14.92,5.24,30.13,30.13,0,0,1,9.21,10.16c.47.91.91,1.78,1.26,2.65a24.82,24.82,0,0,1,.89,2.53,17,17,0,0,1,.62,8,5.61,5.61,0,0,1-.85,2.2A1.72,1.72,0,0,1,406.29,105.83Z" style="fill:#fff"></path></g><path d="M334.34,80.08c.72.31.53,2.37-.44,4.59a11.73,11.73,0,0,1-1.08,2c-.74,1.08-1.5,1.69-2,1.48-.73-.31-.53-2.37.44-4.59S333.62,79.77,334.34,80.08Z" style="fill:#FF725E"></path><path d="M332.93,86.49a13.84,13.84,0,0,0,1.69-4c.75.29,1.6.63,2.47,1,0,0-2,2.83-3.31,3.49Z" style="opacity:0.30000000000000004"></path><path d="M331.78,107.77c.78-.09,1.65,1.78,2,4.19a11.6,11.6,0,0,1,.07,2.25c-.09,1.3-.44,2.21-1,2.28-.78.09-1.65-1.78-1.94-4.19S331,107.87,331.78,107.77Z" style="fill:#FF725E"></path><path d="M333.81,114a9.58,9.58,0,0,0-.57-4.31c.81-.08,1.68-.21,2.59-.37,0,0-.26,3.36-1.07,4.6Z" style="opacity:0.30000000000000004"></path><path d="M333,132.55c.64-.47,2.32.74,3.75,2.69a12.07,12.07,0,0,1,1.17,1.92c.56,1.19.7,2.15.28,2.46-.63.47-2.31-.74-3.74-2.69S332.39,133,333,132.55Z" style="fill:#FF725E"></path><path d="M337.86,137a14.09,14.09,0,0,0-2.61-3.47c.63-.5,1.35-1.07,2.06-1.66,0,0,1.45,3.13,1.35,4.62Z" style="opacity:0.30000000000000004"></path><path d="M355,148.75c.31-.73,2.36-.54,4.59.42a11.42,11.42,0,0,1,2,1.07c1.09.74,1.7,1.49,1.49,2-.31.73-2.37.54-4.59-.42S354.72,149.47,355,148.75Z" style="fill:#FF725E"></path><path d="M361.46,150.13a9.72,9.72,0,0,0-4-1.67c.34-.74.67-1.56,1-2.43,0,0,2.77,1.91,3.43,3.25Z" style="opacity:0.30000000000000004"></path><path d="M386.89,159.67c-.27-.74,1.35-2,3.63-2.86a12.46,12.46,0,0,1,2.17-.59c1.29-.21,2.26-.08,2.44.41.27.74-1.35,2-3.63,2.86S387.16,160.41,386.89,159.67Z" style="fill:#FF725E"></path><path d="M392.5,156.26a13.8,13.8,0,0,0-4.06,1.54c-.3-.74-.65-1.59-1-2.44,0,0,3.41-.53,4.81,0Z" style="opacity:0.30000000000000004"></path><path d="M410.06,143.06c-.55-.56.4-2.39,2.12-4.09a13.21,13.21,0,0,1,1.74-1.44c1.09-.72,2-1,2.39-.63.55.56-.4,2.4-2.13,4.1S410.61,143.62,410.06,143.06Z" style="fill:#FF725E"></path><path d="M413.77,137.64a9.65,9.65,0,0,0-3.07,3.08c-.55-.59-1.19-1.2-1.88-1.82,0,0,2.82-1.85,4.31-2Z" style="opacity:0.30000000000000004"></path><path d="M430,117.46c-.78-.07-1.26-2.08-1.07-4.49a12.18,12.18,0,0,1,.38-2.22c.35-1.26.88-2.09,1.4-2,.78.06,1.26,2.07,1.06,4.49S430.74,117.52,430,117.46Z" style="fill:#FF725E"></path><path d="M429.21,110.93a13.94,13.94,0,0,0-.3,4.34l-2.65-.11s1-3.31,2-4.36Z" style="opacity:0.30000000000000004"></path><path d="M368.87,121.47c1.61,2.33,1.64,5.1.07,6.18s-4.15.07-5.76-2.26-1.64-5.1-.07-6.19S367.26,119.13,368.87,121.47Z" style="opacity:0.30000000000000004"></path><path d="M366.15,119.81c1.61,2.33,1.64,5.1.07,6.19s-4.14.07-5.75-2.27-1.65-5.1-.08-6.18S364.54,117.48,366.15,119.81Z" style="fill:#FF725E"></path><path d="M366.15,119.81c1.61,2.33,1.64,5.1.07,6.19s-4.14.07-5.75-2.27-1.65-5.1-.08-6.18S364.54,117.48,366.15,119.81Z" style="fill:#fff;opacity:0.2"></path><path d="M351,98c1.3-2.52,3.73-3.84,5.43-3s2,3.64.69,6.15-3.73,3.84-5.43,3S349.66,100.5,351,98Z" style="opacity:0.30000000000000004"></path><path d="M348.19,96.63c1.3-2.51,3.73-3.84,5.43-3s2,3.63.69,6.15-3.74,3.84-5.43,3S346.88,99.15,348.19,96.63Z" style="fill:#FF725E"></path><path d="M348.19,96.63c1.3-2.51,3.73-3.84,5.43-3s2,3.63.69,6.15-3.74,3.84-5.43,3S346.88,99.15,348.19,96.63Z" style="fill:#fff;opacity:0.2"></path><path d="M386,128.39a3.38,3.38,0,1,1-4.7-.86A3.38,3.38,0,0,1,386,128.39Z" style="opacity:0.30000000000000004"></path><path d="M385,126.9a3.38,3.38,0,1,1-4.7-.86A3.38,3.38,0,0,1,385,126.9Z" style="fill:#FF725E"></path><path d="M385,126.9a3.38,3.38,0,1,1-4.7-.86A3.38,3.38,0,0,1,385,126.9Z" style="fill:#fff;opacity:0.30000000000000004"></path><path d="M387.39,90.93a4.16,4.16,0,1,1-3.53-4.69A4.16,4.16,0,0,1,387.39,90.93Z" style="opacity:0.30000000000000004"></path><path d="M387.7,88.73a4.16,4.16,0,1,1-3.53-4.7A4.15,4.15,0,0,1,387.7,88.73Z" style="fill:#FF725E"></path><path d="M387.7,88.73a4.16,4.16,0,1,1-3.53-4.7A4.15,4.15,0,0,1,387.7,88.73Z" style="fill:#fff;opacity:0.30000000000000004"></path><path d="M402,121.36a2.48,2.48,0,1,1-3.45-.63A2.49,2.49,0,0,1,402,121.36Z" style="opacity:0.30000000000000004"></path><path d="M401.28,120.27a2.47,2.47,0,1,1-3.44-.63A2.46,2.46,0,0,1,401.28,120.27Z" style="fill:#FF725E"></path><path d="M401.28,120.27a2.47,2.47,0,1,1-3.44-.63A2.46,2.46,0,0,1,401.28,120.27Z" style="fill:#fff;opacity:0.30000000000000004"></path><path d="M424.84,82.84c-.63.46-2.28-.73-3.7-2.66a11.74,11.74,0,0,1-1.15-1.9c-.56-1.17-.7-2.12-.28-2.43.62-.46,2.28.73,3.7,2.66S425.47,82.38,424.84,82.84Z" style="fill:#FF725E"></path><path d="M420.07,78.45a13.83,13.83,0,0,0,2.58,3.43c-.63.49-1.34,1.05-2,1.64,0,0-1.43-3.09-1.32-4.56Z" style="opacity:0.30000000000000004"></path><path d="M402.48,66.88c-.31.72-2.34.53-4.54-.42a11.5,11.5,0,0,1-2-1c-1.07-.73-1.67-1.48-1.47-1.95.31-.72,2.34-.53,4.54.42S402.78,66.17,402.48,66.88Z" style="fill:#FF725E"></path><path d="M396.13,65.51a9.55,9.55,0,0,0,4,1.66c-.34.72-.66,1.53-1,2.39,0,0-2.73-1.89-3.39-3.21Z" style="opacity:0.30000000000000004"></path><path d="M380.71,55.62c.08.78-1.78,1.61-4.16,1.86a11.26,11.26,0,0,1-2.23,0c-1.28-.11-2.18-.46-2.23-1-.08-.78,1.78-1.61,4.16-1.87S380.63,54.85,380.71,55.62Z" style="fill:#FF725E"></path><path d="M374.51,57.54a13.93,13.93,0,0,0,4.27-.5c.11.78.23,1.68.38,2.59,0,0-3.39-.32-4.6-1.15Z" style="opacity:0.30000000000000004"></path><path d="M355.94,66.36c.46.62-.72,2.28-2.65,3.71a12.13,12.13,0,0,1-1.9,1.16c-1.16.56-2.12.7-2.42.29-.46-.63.72-2.29,2.64-3.72S355.47,65.73,355.94,66.36Z" style="fill:#FF725E"></path><path d="M351.56,71.15a9.58,9.58,0,0,0,3.43-2.6c.46.66,1,1.35,1.58,2,0,0-3,1.42-4.48,1.32Z" style="opacity:0.30000000000000004"></path><path d="M404.51,109c.33,2.82-.93,5.28-2.83,5.5s-3.69-1.88-4-4.69.94-5.28,2.83-5.5S404.18,106.2,404.51,109Z" style="opacity:0.30000000000000004"></path><path d="M404.94,107c.33,2.81-.93,5.28-2.83,5.5s-3.7-1.88-4-4.69.94-5.28,2.83-5.51S404.61,104.22,404.94,107Z" style="fill:#FF725E"></path><path d="M404.94,107c.33,2.81-.93,5.28-2.83,5.5s-3.7-1.88-4-4.69.94-5.28,2.83-5.51S404.61,104.22,404.94,107Z" style="fill:#fff;opacity:0.30000000000000004"></path><path d="M382.4,104.41a5.13,5.13,0,1,1-7.14-1.31A5.13,5.13,0,0,1,382.4,104.41Z" style="opacity:0.30000000000000004"></path><path d="M380.7,102a5.13,5.13,0,1,1-7.14-1.31A5.14,5.14,0,0,1,380.7,102Z" style="fill:#FF725E"></path><path d="M380.7,102a5.13,5.13,0,1,1-7.14-1.31A5.14,5.14,0,0,1,380.7,102Z" style="fill:#fff;opacity:0.2"></path><g style="opacity:0.30000000000000004"><path d="M409.29,120c.41.19.46,1.13.07,2.67a21.27,21.27,0,0,1-2.85,6,30.84,30.84,0,0,1-2.84,3.7,33.86,33.86,0,0,1-27.12,11.14,34.47,34.47,0,0,1-5.34-.71,32.33,32.33,0,0,1-4.46-1.35,21.27,21.27,0,0,1-5.83-3.27c-1.22-1-1.72-1.82-1.51-2.2.48-.85,3.62.23,8.57,1,1.23.19,2.59.32,4,.44s3,.13,4.61.05a37.31,37.31,0,0,0,19.54-6.28c1.36-.88,2.58-1.82,3.71-2.72s2.14-1.84,3-2.71C406.49,122.26,408.41,119.56,409.29,120Z"></path></g><g style="opacity:0.30000000000000004"><path d="M351.66,125.62a3.14,3.14,0,1,1-.72,4.49A3.22,3.22,0,0,1,351.66,125.62Z"></path></g><path d="M294.33,117.65a6.12,6.12,0,0,0-.59-2.31,9.16,9.16,0,0,1,1.81-1.77l-.42-.58a10.83,10.83,0,0,1-2.29,1,6.1,6.1,0,0,0-1.44-1.21,4,4,0,0,1,.39-1.63l-.65-.29a5.93,5.93,0,0,1-.91,1.38,5.83,5.83,0,0,0-1.36-.31,8.84,8.84,0,0,1-.63-2.46l-.71.06a11,11,0,0,1-.33,2.46,5.88,5.88,0,0,0-1.7.57,4.47,4.47,0,0,1-1.22-1.17l-.58.41a5.44,5.44,0,0,1,.72,1.45,6.18,6.18,0,0,0-1.09,1.14,9.37,9.37,0,0,1-2.44-.68l-.3.66a10.18,10.18,0,0,1,2,1.47,6.05,6.05,0,0,0-.38,2,4.39,4.39,0,0,1-1.5.42l.08.72a5.47,5.47,0,0,1,1.5.06,5.82,5.82,0,0,0,.49,1.55,11.29,11.29,0,0,1-1.74,1.63l.42.59a10.13,10.13,0,0,1,2.14-.91,6,6,0,0,0,1.53,1.32,4.47,4.47,0,0,1-.39,1.49l.66.3a5.72,5.72,0,0,1,.81-1.27,6.29,6.29,0,0,0,2.55.35,10.5,10.5,0,0,1,1.14,2.18l.68-.24a10.11,10.11,0,0,1-.28-2.27,5.7,5.7,0,0,0,1.46-.73,6.59,6.59,0,0,0,.64-.52,4.5,4.5,0,0,1,1.21.91l.52-.5a6.39,6.39,0,0,1-.92-1.31,6.15,6.15,0,0,0,1-2.32,10.71,10.71,0,0,1,2.39-.1l.07-.73A10.2,10.2,0,0,1,294.33,117.65Zm-9.75-4.55,0,0Z" style="fill:#FF725E"></path><g style="opacity:0.2"><path d="M292.82,117.56c-.31,0-.61-.5-1.15-1.14-.06-.09-.14-.16-.21-.25l-.24-.25a5.45,5.45,0,0,0-.56-.49,4.6,4.6,0,0,0-3-1.05,5.86,5.86,0,0,0-.74,0l-.34,0a3,3,0,0,0-.32.06c-.83.16-1.4.4-1.62.17a.28.28,0,0,1-.07-.23,1,1,0,0,1,.12-.38,3.52,3.52,0,0,1,1.29-1.21l.44-.21a5.08,5.08,0,0,1,1-.3,5.34,5.34,0,0,1,1.21-.06,5.18,5.18,0,0,1,1.31.27,5,5,0,0,1,1.18.6,5.53,5.53,0,0,1,.91.81,4.48,4.48,0,0,1,.62.89,4.39,4.39,0,0,1,.21.44,2.35,2.35,0,0,1,.15.42,2.78,2.78,0,0,1,.1,1.33.8.8,0,0,1-.14.36A.27.27,0,0,1,292.82,117.56Z" style="fill:#fff"></path></g><path d="M280.84,113.27c.12.06.09.4-.07.77a2.45,2.45,0,0,1-.18.33c-.13.18-.25.28-.33.25s-.09-.4.07-.77S280.72,113.22,280.84,113.27Z" style="fill:#FF725E"></path><path d="M280.61,114.34a2.35,2.35,0,0,0,.28-.66l.41.15a2.26,2.26,0,0,1-.55.58Z" style="opacity:0.30000000000000004"></path><path d="M280.41,117.89c.13,0,.28.29.33.69a2.5,2.5,0,0,1,0,.38c0,.22-.07.37-.16.38s-.27-.3-.32-.7S280.28,117.9,280.41,117.89Z" style="fill:#FF725E"></path><path d="M280.75,118.93a1.57,1.57,0,0,0-.09-.72l.43-.06a2.17,2.17,0,0,1-.18.76Z" style="opacity:0.30000000000000004"></path><path d="M280.62,122c.11-.08.39.13.63.45a2.23,2.23,0,0,1,.19.32c.09.2.12.36.05.41s-.39-.12-.63-.45S280.52,122.09,280.62,122Z" style="fill:#FF725E"></path><path d="M281.43,122.75a2.48,2.48,0,0,0-.44-.58l.35-.27a2.33,2.33,0,0,1,.22.77Z" style="opacity:0.30000000000000004"></path><path d="M284.29,124.71c0-.12.39-.09.76.07a1.69,1.69,0,0,1,.33.18c.18.12.28.25.25.33s-.39.09-.77-.07S284.24,124.83,284.29,124.71Z" style="fill:#FF725E"></path><path d="M285.36,124.94a1.6,1.6,0,0,0-.67-.28c.05-.12.11-.26.16-.4a2.34,2.34,0,0,1,.57.54Z" style="opacity:0.30000000000000004"></path><path d="M289.59,126.53c0-.12.23-.34.61-.48a1.72,1.72,0,0,1,.36-.09c.21,0,.37,0,.4.06s-.22.34-.6.48S289.64,126.65,289.59,126.53Z" style="fill:#FF725E"></path><path d="M290.53,126a2.43,2.43,0,0,0-.68.26l-.17-.41a2.28,2.28,0,0,1,.8,0Z" style="opacity:0.30000000000000004"></path><path d="M293.45,123.76c-.09-.09.07-.39.35-.68l.29-.24c.19-.12.34-.16.4-.1s-.06.4-.35.68S293.54,123.86,293.45,123.76Z" style="fill:#FF725E"></path><path d="M294.07,122.86a1.59,1.59,0,0,0-.51.51c-.1-.09-.2-.2-.32-.3a2.33,2.33,0,0,1,.72-.33Z" style="opacity:0.30000000000000004"></path><path d="M296.76,119.5c-.13,0-.21-.35-.17-.75a2,2,0,0,1,.06-.37c.06-.21.14-.34.23-.34s.21.35.18.75S296.89,119.51,296.76,119.5Z" style="fill:#FF725E"></path><path d="M296.64,118.41a2.24,2.24,0,0,0-.05.73l-.44,0a2.54,2.54,0,0,1,.33-.73Z" style="opacity:0.30000000000000004"></path><path d="M286.59,120.17c.27.39.27.85,0,1s-.69,0-1-.38-.27-.85,0-1S286.32,119.78,286.59,120.17Z" style="opacity:0.30000000000000004"></path><path d="M286.14,119.89c.27.39.27.85,0,1s-.69,0-1-.38a.76.76,0,0,1,0-1C285.44,119.33,285.87,119.5,286.14,119.89Z" style="fill:#FF725E"></path><path d="M286.14,119.89c.27.39.27.85,0,1s-.69,0-1-.38a.76.76,0,0,1,0-1C285.44,119.33,285.87,119.5,286.14,119.89Z" style="fill:#fff;opacity:0.2"></path><path d="M283.61,116.26c.22-.42.62-.64.9-.5s.34.61.12,1-.62.64-.9.49S283.39,116.68,283.61,116.26Z" style="opacity:0.30000000000000004"></path><path d="M283.15,116c.21-.42.62-.64.9-.49s.33.6.12,1-.63.64-.91.49S282.93,116.45,283.15,116Z" style="fill:#FF725E"></path><path d="M283.15,116c.21-.42.62-.64.9-.49s.33.6.12,1-.63.64-.91.49S282.93,116.45,283.15,116Z" style="fill:#fff;opacity:0.2"></path><path d="M289.44,121.32a.56.56,0,0,1-.14.78.56.56,0,1,1,.14-.78Z" style="opacity:0.30000000000000004"></path><path d="M289.27,121.07a.56.56,0,1,1-.78-.14A.56.56,0,0,1,289.27,121.07Z" style="fill:#FF725E"></path><path d="M289.27,121.07a.56.56,0,1,1-.78-.14A.56.56,0,0,1,289.27,121.07Z" style="fill:#fff;opacity:0.30000000000000004"></path><path d="M289.67,115.08a.69.69,0,0,1-1.37-.19.71.71,0,0,1,.79-.59A.68.68,0,0,1,289.67,115.08Z" style="opacity:0.30000000000000004"></path><path d="M289.73,114.72a.7.7,0,0,1-.79.58.68.68,0,0,1-.58-.78.69.69,0,0,1,.78-.59A.71.71,0,0,1,289.73,114.72Z" style="fill:#FF725E"></path><path d="M289.73,114.72a.7.7,0,0,1-.79.58.68.68,0,0,1-.58-.78.69.69,0,0,1,.78-.59A.71.71,0,0,1,289.73,114.72Z" style="fill:#fff;opacity:0.30000000000000004"></path><path d="M292.11,120.15a.41.41,0,1,1-.67.47.42.42,0,0,1,.1-.58A.4.4,0,0,1,292.11,120.15Z" style="opacity:0.30000000000000004"></path><path d="M292,120a.41.41,0,0,1-.11.57.41.41,0,1,1-.46-.68A.41.41,0,0,1,292,120Z" style="fill:#FF725E"></path><path d="M292,120a.41.41,0,0,1-.11.57.41.41,0,1,1-.46-.68A.41.41,0,0,1,292,120Z" style="fill:#fff;opacity:0.30000000000000004"></path><path d="M295.91,113.73c-.1.08-.38-.12-.61-.44a2.36,2.36,0,0,1-.2-.32c-.09-.19-.11-.35,0-.4s.38.12.61.44S296,113.66,295.91,113.73Z" style="fill:#FF725E"></path><path d="M295.12,113a2.16,2.16,0,0,0,.43.57l-.34.28a2.34,2.34,0,0,1-.22-.76Z" style="opacity:0.30000000000000004"></path><path d="M292.19,111.08c-.05.12-.39.08-.76-.07l-.32-.18c-.18-.12-.28-.24-.25-.32s.39-.09.76.07S292.24,111,292.19,111.08Z" style="fill:#FF725E"></path><path d="M291.13,110.85a1.57,1.57,0,0,0,.66.27c-.05.13-.11.26-.16.4a2.24,2.24,0,0,1-.57-.53Z" style="opacity:0.30000000000000004"></path><path d="M288.56,109.2c0,.13-.29.27-.69.31a1.55,1.55,0,0,1-.37,0c-.22,0-.36-.08-.37-.16s.29-.27.69-.31S288.55,109.07,288.56,109.2Z" style="fill:#FF725E"></path><path d="M287.53,109.52a2.31,2.31,0,0,0,.71-.08c0,.13,0,.28.06.43a2.25,2.25,0,0,1-.76-.19Z" style="opacity:0.30000000000000004"></path><path d="M284.44,111c.07.1-.12.38-.44.62a2.23,2.23,0,0,1-.32.19c-.19.09-.35.12-.4,0s.12-.38.44-.62S284.36,110.89,284.44,111Z" style="fill:#FF725E"></path><path d="M283.71,111.79a1.65,1.65,0,0,0,.57-.43c.08.1.16.22.26.34a2.44,2.44,0,0,1-.74.22Z" style="opacity:0.30000000000000004"></path><path d="M292.53,118.09c.05.47-.16.88-.47.92s-.62-.31-.68-.78.16-.88.48-.92S292.47,117.63,292.53,118.09Z" style="opacity:0.30000000000000004"></path><path d="M292.6,117.76c0,.47-.16.88-.47.92s-.62-.31-.67-.78.15-.88.47-.92S292.54,117.3,292.6,117.76Z" style="fill:#FF725E"></path><path d="M292.6,117.76c0,.47-.16.88-.47.92s-.62-.31-.67-.78.15-.88.47-.92S292.54,117.3,292.6,117.76Z" style="fill:#fff;opacity:0.30000000000000004"></path><path d="M288.84,117.33a.85.85,0,1,1-1.19-.22A.86.86,0,0,1,288.84,117.33Z" style="opacity:0.30000000000000004"></path><path d="M288.56,116.92a.86.86,0,0,1-1.41,1,.86.86,0,0,1,.22-1.19A.85.85,0,0,1,288.56,116.92Z" style="fill:#FF725E"></path><path d="M288.56,116.92a.86.86,0,0,1-1.41,1,.86.86,0,0,1,.22-1.19A.85.85,0,0,1,288.56,116.92Z" style="fill:#fff;opacity:0.2"></path><g style="opacity:0.2"><path d="M293.32,119.92c.07,0,.08.19,0,.44a3.34,3.34,0,0,1-.47,1,6,6,0,0,1-.47.62,6.61,6.61,0,0,1-.66.61,5.7,5.7,0,0,1-1.81,1,5.78,5.78,0,0,1-2.05.26,4.9,4.9,0,0,1-.89-.12,4.62,4.62,0,0,1-.74-.22,3.46,3.46,0,0,1-1-.55c-.21-.17-.29-.3-.25-.36s.6,0,1.42.16l.67.07c.25,0,.5,0,.77,0a6.59,6.59,0,0,0,1.7-.29,6.47,6.47,0,0,0,1.56-.76,7.41,7.41,0,0,0,.61-.45,5.83,5.83,0,0,0,.51-.45C292.86,120.3,293.18,119.85,293.32,119.92Z"></path></g><g style="opacity:0.2"><path d="M283.73,120.86a.54.54,0,0,1,.75.08.55.55,0,0,1-.88.67A.54.54,0,0,1,283.73,120.86Z"></path></g></g></svg>