<svg width="156" height="108" viewBox="0 0 156 108" fill="none"
    xmlns="http://www.w3.org/2000/svg">
    <path d="M70.8672 62.6719C70.8672 76.8281 67.9375 87.6562 62.0781 95.1562C56.2188 102.656 47.6406 106.406 36.3438 106.406C25.1875 106.406 16.6562 102.727 10.75 95.3672C4.84375 88.0078 1.82031 77.4609 1.67969 63.7266V44.8828C1.67969 30.5859 4.63281 19.7344 10.5391 12.3281C16.4922 4.92188 25.0469 1.21875 36.2031 1.21875C47.3594 1.21875 55.8906 4.89844 61.7969 12.2578C67.7031 19.5703 70.7266 30.0938 70.8672 43.8281V62.6719ZM50.5469 42C50.5469 33.5156 49.375 27.3516 47.0312 23.5078C44.7344 19.6172 41.125 17.6719 36.2031 17.6719C31.4219 17.6719 27.8828 19.5234 25.5859 23.2266C23.3359 26.8828 22.1406 32.625 22 40.4531V65.3438C22 73.6875 23.125 79.8984 25.375 83.9766C27.6719 88.0078 31.3281 90.0234 36.3438 90.0234C41.3125 90.0234 44.8984 88.0781 47.1016 84.1875C49.3047 80.2969 50.4531 74.3438 50.5469 66.3281V42ZM154.82 105H84.6484V91.0781L117.766 55.7812C122.312 50.8125 125.664 46.4766 127.82 42.7734C130.023 39.0703 131.125 35.5547 131.125 32.2266C131.125 27.6797 129.977 24.1172 127.68 21.5391C125.383 18.9141 122.102 17.6016 117.836 17.6016C113.242 17.6016 109.609 19.1953 106.938 22.3828C104.312 25.5234 103 29.6719 103 34.8281H82.6094C82.6094 28.5937 84.0859 22.8984 87.0391 17.7422C90.0391 12.5859 94.2578 8.55469 99.6953 5.64844C105.133 2.69531 111.297 1.21875 118.188 1.21875C128.734 1.21875 136.914 3.75 142.727 8.8125C148.586 13.875 151.516 21.0234 151.516 30.2578C151.516 35.3203 150.203 40.4766 147.578 45.7266C144.953 50.9766 140.453 57.0938 134.078 64.0781L110.805 88.6172H154.82V105Z" fill="#575756" fill-opacity="0.6"/>
    <path d="M1.67969 63.7266H0.679635L0.67974 63.7368L1.67969 63.7266ZM10.5391 12.3281L9.75963 11.7016L9.75723 11.7046L10.5391 12.3281ZM61.7969 12.2578L61.017 12.8837L61.0189 12.8862L61.7969 12.2578ZM70.8672 43.8281H71.8672L71.8671 43.8179L70.8672 43.8281ZM47.0312 23.5078L46.1701 24.0162L46.1737 24.0223L46.1775 24.0284L47.0312 23.5078ZM25.5859 23.2266L24.7361 22.6995L24.7343 22.7025L25.5859 23.2266ZM22 40.4531L21.0002 40.4352L21 40.4441V40.4531H22ZM25.375 83.9766L24.4993 84.4597L24.5061 84.4716L25.375 83.9766ZM50.5469 66.3281L51.5469 66.3398V66.3281H50.5469ZM69.8672 62.6719C69.8672 76.7092 66.9594 87.2839 61.2901 94.5406L62.8661 95.7719C68.9156 88.0286 71.8672 76.947 71.8672 62.6719H69.8672ZM61.2901 94.5406C55.6567 101.751 47.3972 105.406 36.3438 105.406V107.406C47.884 107.406 56.7808 103.561 62.8661 95.7719L61.2901 94.5406ZM36.3438 105.406C25.4291 105.406 17.2108 101.82 11.5299 94.7413L9.9701 95.9931C16.1017 103.633 24.9459 107.406 36.3438 107.406V105.406ZM11.5299 94.7413C5.81522 87.6206 2.81898 77.3253 2.67964 63.7163L0.67974 63.7368C0.821649 77.5965 3.87228 88.395 9.9701 95.9931L11.5299 94.7413ZM2.67969 63.7266V44.8828H0.679688V63.7266H2.67969ZM2.67969 44.8828C2.67969 30.7023 5.61196 20.1104 11.3209 12.9516L9.75723 11.7046C3.65367 19.3583 0.679688 30.4696 0.679688 44.8828H2.67969ZM11.3185 12.9546C17.0477 5.82693 25.2909 2.21875 36.2031 2.21875V0.21875C24.8029 0.21875 15.9367 4.01682 9.75964 11.7016L11.3185 12.9546ZM36.2031 2.21875C47.1178 2.21875 55.336 5.80508 61.017 12.8837L62.5768 11.6319C56.4452 3.99179 47.6009 0.21875 36.2031 0.21875V2.21875ZM61.0189 12.8862C66.7314 19.9588 69.7279 30.2288 69.8672 43.8384L71.8671 43.8179C71.7252 29.9587 68.6748 19.1818 62.5748 11.6295L61.0189 12.8862ZM69.8672 43.8281V62.6719H71.8672V43.8281H69.8672ZM51.5469 42C51.5469 33.469 50.3768 27.0737 47.885 22.9872L46.1775 24.0284C48.3732 27.6294 49.5469 33.5623 49.5469 42H51.5469ZM47.8924 22.9994C45.397 18.7725 41.4405 16.6719 36.2031 16.6719V18.6719C40.8095 18.6719 44.0718 20.4618 46.1701 24.0162L47.8924 22.9994ZM36.2031 16.6719C31.1161 16.6719 27.2356 18.6696 24.7361 22.6995L26.4357 23.7537C28.53 20.3772 31.7276 18.6719 36.2031 18.6719V16.6719ZM24.7343 22.7025C22.3413 26.5911 21.1417 32.554 21.0002 40.4352L22.9998 40.4711C23.1395 32.696 24.3306 27.1745 26.4376 23.7507L24.7343 22.7025ZM21 40.4531V65.3438H23V40.4531H21ZM21 65.3438C21 73.742 22.1262 80.1582 24.4994 84.4596L26.2506 83.4935C24.1238 79.6387 23 73.633 23 65.3438H21ZM24.5061 84.4716C26.9978 88.8448 31.0044 91.0234 36.3438 91.0234V89.0234C31.6519 89.0234 28.3459 87.1709 26.2439 83.4815L24.5061 84.4716ZM36.3438 91.0234C41.6241 91.0234 45.5684 88.9245 47.9717 84.6802L46.2314 83.6948C44.2285 87.2317 41.0009 89.0234 36.3438 89.0234V91.0234ZM47.9717 84.6802C50.3004 80.5679 51.4524 74.4097 51.5468 66.3398L49.5469 66.3164C49.4538 74.2778 48.309 80.0258 46.2314 83.6948L47.9717 84.6802ZM51.5469 66.3281V42H49.5469V66.3281H51.5469ZM154.82 105V106H155.82V105H154.82ZM84.6484 105H83.6484V106H84.6484V105ZM84.6484 91.0781L83.9192 90.3939L83.6484 90.6824V91.0781H84.6484ZM117.766 55.7812L118.495 56.4655L118.503 56.4563L117.766 55.7812ZM127.82 42.7734L126.961 42.2621L126.956 42.2702L127.82 42.7734ZM127.68 21.5391L126.927 22.1976L126.933 22.2043L127.68 21.5391ZM106.938 22.3828L106.171 21.7404L106.17 21.7415L106.938 22.3828ZM103 34.8281V35.8281H104V34.8281H103ZM82.6094 34.8281H81.6094V35.8281H82.6094V34.8281ZM87.0391 17.7422L86.1747 17.2393L86.1713 17.2452L87.0391 17.7422ZM99.6953 5.64844L100.167 6.53039L100.173 6.5272L99.6953 5.64844ZM142.727 8.8125L142.07 9.56659L142.073 9.56919L142.727 8.8125ZM134.078 64.0781L134.804 64.7663L134.81 64.7593L134.817 64.7523L134.078 64.0781ZM110.805 88.6172L110.079 87.929L108.478 89.6172H110.805V88.6172ZM154.82 88.6172H155.82V87.6172H154.82V88.6172ZM154.82 104H84.6484V106H154.82V104ZM85.6484 105V91.0781H83.6484V105H85.6484ZM85.3777 91.7624L118.495 56.4655L117.036 55.097L83.9192 90.3939L85.3777 91.7624ZM118.503 56.4563C123.074 51.4612 126.478 47.066 128.684 43.2766L126.956 42.2702C124.85 45.8872 121.551 50.1638 117.028 55.1062L118.503 56.4563ZM128.68 43.2847C130.948 39.4716 132.125 35.7803 132.125 32.2266H130.125C130.125 35.329 129.099 38.6691 126.961 42.2621L128.68 43.2847ZM132.125 32.2266C132.125 27.5137 130.932 23.6868 128.426 20.8739L126.933 22.2043C129.021 24.5476 130.125 27.8457 130.125 32.2266H132.125ZM128.432 20.8806C125.904 17.991 122.32 16.6016 117.836 16.6016V18.6016C121.883 18.6016 124.862 19.8372 126.927 22.1976L128.432 20.8806ZM117.836 16.6016C112.981 16.6016 109.054 18.3008 106.171 21.7404L107.704 23.0252C110.164 20.0898 113.503 18.6016 117.836 18.6016V16.6016ZM106.17 21.7415C103.359 25.1048 102 29.4999 102 34.8281H104C104 29.8438 105.266 25.9421 107.705 23.0241L106.17 21.7415ZM103 33.8281H82.6094V35.8281H103V33.8281ZM83.6094 34.8281C83.6094 28.7592 85.0447 23.2366 87.9068 18.2392L86.1713 17.2452C83.1272 22.5603 81.6094 28.4283 81.6094 34.8281H83.6094ZM87.9034 18.2451C90.8069 13.2547 94.887 9.35225 100.167 6.53037L99.2239 4.76651C93.6286 7.75712 89.2712 11.9171 86.1747 17.2393L87.9034 18.2451ZM100.173 6.5272C105.448 3.66236 111.444 2.21875 118.188 2.21875V0.21875C111.149 0.21875 104.818 1.72827 99.2181 4.76968L100.173 6.5272ZM118.188 2.21875C128.582 2.21875 136.497 4.71278 142.07 9.56658L143.383 8.05842C137.331 2.78722 128.887 0.21875 118.188 0.21875V2.21875ZM142.073 9.56919C147.67 14.4049 150.516 21.2525 150.516 30.2578H152.516C152.516 20.7943 149.502 13.3451 143.38 8.05581L142.073 9.56919ZM150.516 30.2578C150.516 35.1421 149.25 40.1461 146.684 45.2794L148.473 46.1738C151.156 40.8071 152.516 35.4986 152.516 30.2578H150.516ZM146.684 45.2794C144.117 50.4123 139.685 56.4516 133.34 63.404L134.817 64.7523C141.221 57.7359 145.789 51.5408 148.473 46.1738L146.684 45.2794ZM133.353 63.39L110.079 87.929L111.53 89.3053L134.804 64.7663L133.353 63.39ZM110.805 89.6172H154.82V87.6172H110.805V89.6172ZM153.82 88.6172V105H155.82V88.6172H153.82Z" fill="black"/>
</svg>
