<svg width="155" height="108" viewBox="0 0 155 108" fill="none"
    xmlns="http://www.w3.org/2000/svg">
    <path d="M70.8672 62.6719C70.8672 76.8281 67.9375 87.6562 62.0781 95.1562C56.2188 102.656 47.6406 106.406 36.3438 106.406C25.1875 106.406 16.6562 102.727 10.75 95.3672C4.84375 88.0078 1.82031 77.4609 1.67969 63.7266V44.8828C1.67969 30.5859 4.63281 19.7344 10.5391 12.3281C16.4922 4.92188 25.0469 1.21875 36.2031 1.21875C47.3594 1.21875 55.8906 4.89844 61.7969 12.2578C67.7031 19.5703 70.7266 30.0938 70.8672 43.8281V62.6719ZM50.5469 42C50.5469 33.5156 49.375 27.3516 47.0312 23.5078C44.7344 19.6172 41.125 17.6719 36.2031 17.6719C31.4219 17.6719 27.8828 19.5234 25.5859 23.2266C23.3359 26.8828 22.1406 32.625 22 40.4531V65.3438C22 73.6875 23.125 79.8984 25.375 83.9766C27.6719 88.0078 31.3281 90.0234 36.3438 90.0234C41.3125 90.0234 44.8984 88.0781 47.1016 84.1875C49.3047 80.2969 50.4531 74.3438 50.5469 66.3281V42ZM105.32 44.8125H116.148C121.305 44.8125 125.125 43.5234 127.609 40.9453C130.094 38.3672 131.336 34.9453 131.336 30.6797C131.336 26.5547 130.094 23.3438 127.609 21.0469C125.172 18.75 121.797 17.6016 117.484 17.6016C113.594 17.6016 110.336 18.6797 107.711 20.8359C105.086 22.9453 103.773 25.7109 103.773 29.1328H83.4531C83.4531 23.7891 84.8828 19.0078 87.7422 14.7891C90.6484 10.5234 94.6797 7.19531 99.8359 4.80469C105.039 2.41406 110.758 1.21875 116.992 1.21875C127.82 1.21875 136.305 3.82031 142.445 9.02344C148.586 14.1797 151.656 21.3047 151.656 30.3984C151.656 35.0859 150.227 39.3984 147.367 43.3359C144.508 47.2734 140.758 50.2969 136.117 52.4062C141.883 54.4688 146.172 57.5625 148.984 61.6875C151.844 65.8125 153.273 70.6875 153.273 76.3125C153.273 85.4062 149.945 92.6953 143.289 98.1797C136.68 103.664 127.914 106.406 116.992 106.406C106.773 106.406 98.4062 103.711 91.8906 98.3203C85.4219 92.9297 82.1875 85.8047 82.1875 76.9453H102.508C102.508 80.7891 103.938 83.9297 106.797 86.3672C109.703 88.8047 113.266 90.0234 117.484 90.0234C122.312 90.0234 126.086 88.7578 128.805 86.2266C131.57 83.6484 132.953 80.25 132.953 76.0312C132.953 65.8125 127.328 60.7031 116.078 60.7031H105.32V44.8125Z" fill="#575756" fill-opacity="0.6"/>
    <path d="M1.67969 63.7266H0.679635L0.67974 63.7368L1.67969 63.7266ZM10.5391 12.3281L9.75963 11.7016L9.75723 11.7046L10.5391 12.3281ZM61.7969 12.2578L61.017 12.8837L61.0189 12.8862L61.7969 12.2578ZM70.8672 43.8281H71.8672L71.8671 43.8179L70.8672 43.8281ZM47.0312 23.5078L46.1701 24.0162L46.1737 24.0223L46.1775 24.0284L47.0312 23.5078ZM25.5859 23.2266L24.7361 22.6995L24.7343 22.7025L25.5859 23.2266ZM22 40.4531L21.0002 40.4352L21 40.4441V40.4531H22ZM25.375 83.9766L24.4993 84.4597L24.5061 84.4716L25.375 83.9766ZM50.5469 66.3281L51.5469 66.3398V66.3281H50.5469ZM69.8672 62.6719C69.8672 76.7092 66.9594 87.2839 61.2901 94.5406L62.8661 95.7719C68.9156 88.0286 71.8672 76.947 71.8672 62.6719H69.8672ZM61.2901 94.5406C55.6567 101.751 47.3972 105.406 36.3438 105.406V107.406C47.884 107.406 56.7808 103.561 62.8661 95.7719L61.2901 94.5406ZM36.3438 105.406C25.4291 105.406 17.2108 101.82 11.5299 94.7413L9.9701 95.9931C16.1017 103.633 24.9459 107.406 36.3438 107.406V105.406ZM11.5299 94.7413C5.81522 87.6206 2.81898 77.3253 2.67964 63.7163L0.67974 63.7368C0.821649 77.5965 3.87228 88.395 9.9701 95.9931L11.5299 94.7413ZM2.67969 63.7266V44.8828H0.679688V63.7266H2.67969ZM2.67969 44.8828C2.67969 30.7023 5.61196 20.1104 11.3209 12.9516L9.75723 11.7046C3.65367 19.3583 0.679688 30.4696 0.679688 44.8828H2.67969ZM11.3185 12.9546C17.0477 5.82693 25.2909 2.21875 36.2031 2.21875V0.21875C24.8029 0.21875 15.9367 4.01682 9.75964 11.7016L11.3185 12.9546ZM36.2031 2.21875C47.1178 2.21875 55.336 5.80508 61.017 12.8837L62.5768 11.6319C56.4452 3.99179 47.6009 0.21875 36.2031 0.21875V2.21875ZM61.0189 12.8862C66.7314 19.9588 69.7279 30.2288 69.8672 43.8384L71.8671 43.8179C71.7252 29.9587 68.6748 19.1818 62.5748 11.6295L61.0189 12.8862ZM69.8672 43.8281V62.6719H71.8672V43.8281H69.8672ZM51.5469 42C51.5469 33.469 50.3768 27.0737 47.885 22.9872L46.1775 24.0284C48.3732 27.6294 49.5469 33.5623 49.5469 42H51.5469ZM47.8924 22.9994C45.397 18.7725 41.4405 16.6719 36.2031 16.6719V18.6719C40.8095 18.6719 44.0718 20.4618 46.1701 24.0162L47.8924 22.9994ZM36.2031 16.6719C31.1161 16.6719 27.2356 18.6696 24.7361 22.6995L26.4357 23.7537C28.53 20.3772 31.7276 18.6719 36.2031 18.6719V16.6719ZM24.7343 22.7025C22.3413 26.5911 21.1417 32.554 21.0002 40.4352L22.9998 40.4711C23.1395 32.696 24.3306 27.1745 26.4376 23.7507L24.7343 22.7025ZM21 40.4531V65.3438H23V40.4531H21ZM21 65.3438C21 73.742 22.1262 80.1582 24.4994 84.4596L26.2506 83.4935C24.1238 79.6387 23 73.633 23 65.3438H21ZM24.5061 84.4716C26.9978 88.8448 31.0044 91.0234 36.3438 91.0234V89.0234C31.6519 89.0234 28.3459 87.1709 26.2439 83.4815L24.5061 84.4716ZM36.3438 91.0234C41.6241 91.0234 45.5684 88.9245 47.9717 84.6802L46.2314 83.6948C44.2285 87.2317 41.0009 89.0234 36.3438 89.0234V91.0234ZM47.9717 84.6802C50.3004 80.5679 51.4524 74.4097 51.5468 66.3398L49.5469 66.3164C49.4538 74.2778 48.309 80.0258 46.2314 83.6948L47.9717 84.6802ZM51.5469 66.3281V42H49.5469V66.3281H51.5469ZM105.32 44.8125V43.8125H104.32V44.8125H105.32ZM127.609 21.0469L126.924 21.7747L126.931 21.7811L127.609 21.0469ZM107.711 20.8359L108.337 21.6155L108.346 21.6087L107.711 20.8359ZM103.773 29.1328V30.1328H104.773V29.1328H103.773ZM83.4531 29.1328H82.4531V30.1328H83.4531V29.1328ZM87.7422 14.7891L86.9158 14.226L86.9144 14.228L87.7422 14.7891ZM99.8359 4.80469L99.4184 3.896L99.4153 3.89745L99.8359 4.80469ZM142.445 9.02344L141.799 9.78639L141.802 9.78926L142.445 9.02344ZM136.117 52.4062L135.703 51.4959L133.457 52.5168L135.78 53.3478L136.117 52.4062ZM148.984 61.6875L148.158 62.2509L148.163 62.2572L148.984 61.6875ZM143.289 98.1797L142.653 97.4079L142.65 97.4101L143.289 98.1797ZM91.8906 98.3203L91.2504 99.0885L91.2532 99.0908L91.8906 98.3203ZM82.1875 76.9453V75.9453H81.1875V76.9453H82.1875ZM102.508 76.9453H103.508V75.9453H102.508V76.9453ZM106.797 86.3672L106.148 87.1282L106.154 87.1334L106.797 86.3672ZM128.805 86.2266L129.486 86.9585L129.487 86.958L128.805 86.2266ZM105.32 60.7031H104.32V61.7031H105.32V60.7031ZM105.32 45.8125H116.148V43.8125H105.32V45.8125ZM116.148 45.8125C121.456 45.8125 125.587 44.4855 128.329 41.6392L126.889 40.2514C124.663 42.5614 121.154 43.8125 116.148 43.8125V45.8125ZM128.329 41.6392C131.027 38.8399 132.336 35.1513 132.336 30.6797H130.336C130.336 34.7393 129.16 37.8945 126.889 40.2514L128.329 41.6392ZM132.336 30.6797C132.336 26.3418 131.021 22.8393 128.288 20.3126L126.931 21.7811C129.166 23.8482 130.336 26.7676 130.336 30.6797H132.336ZM128.295 20.3191C125.623 17.8014 121.976 16.6016 117.484 16.6016V18.6016C121.618 18.6016 124.72 19.6986 126.924 21.7747L128.295 20.3191ZM117.484 16.6016C113.398 16.6016 109.906 17.739 107.076 20.0632L108.346 21.6087C110.766 19.6204 113.79 18.6016 117.484 18.6016V16.6016ZM107.085 20.0564C104.219 22.3592 102.773 25.4136 102.773 29.1328H104.773C104.773 26.0083 105.953 23.5315 108.337 21.6154L107.085 20.0564ZM103.773 28.1328H83.4531V30.1328H103.773V28.1328ZM84.4531 29.1328C84.4531 23.9788 85.8284 19.395 88.57 15.3501L86.9144 14.228C83.9372 18.6206 82.4531 23.5993 82.4531 29.1328H84.4531ZM88.5686 15.3521C91.3631 11.2506 95.2471 8.03448 100.257 5.71192L99.4153 3.89745C94.1123 6.35614 89.9338 9.7963 86.9158 14.226L88.5686 15.3521ZM100.253 5.71336C105.314 3.3881 110.889 2.21875 116.992 2.21875V0.21875C110.627 0.21875 104.764 1.44003 99.4184 3.89601L100.253 5.71336ZM116.992 2.21875C127.666 2.21875 135.893 4.78217 141.799 9.78638L143.092 8.26049C136.716 2.85846 127.975 0.21875 116.992 0.21875V2.21875ZM141.802 9.78926C147.685 14.7287 150.656 21.5557 150.656 30.3984H152.656C152.656 21.0536 149.487 13.6307 143.088 8.25762L141.802 9.78926ZM150.656 30.3984C150.656 34.8664 149.298 38.9747 146.558 42.7483L148.176 43.9235C151.155 39.8222 152.656 35.3055 152.656 30.3984H150.656ZM146.558 42.7483C143.805 46.5391 140.194 49.4546 135.703 51.4959L136.531 53.3166C141.321 51.1392 145.21 48.0078 148.176 43.9235L146.558 42.7483ZM135.78 53.3478C141.393 55.3555 145.49 58.3368 148.158 62.2508L149.811 61.1242C146.854 56.7882 142.373 53.582 136.454 51.4647L135.78 53.3478ZM148.163 62.2572C150.892 66.195 152.273 70.8655 152.273 76.3125H154.273C154.273 70.5095 152.795 65.43 149.806 61.1178L148.163 62.2572ZM152.273 76.3125C152.273 85.1262 149.065 92.1251 142.653 97.4079L143.925 98.9515C150.826 93.2656 154.273 85.6863 154.273 76.3125H152.273ZM142.65 97.4101C136.265 102.709 127.746 105.406 116.992 105.406V107.406C128.083 107.406 137.095 104.619 143.928 98.9492L142.65 97.4101ZM116.992 105.406C106.956 105.406 98.8291 102.763 92.5281 97.5498L91.2532 99.0908C97.9834 104.659 106.591 107.406 116.992 107.406V105.406ZM92.5308 97.5521C86.3033 92.3625 83.1875 85.5257 83.1875 76.9453H81.1875C81.1875 86.0837 84.5404 93.4968 91.2504 99.0885L92.5308 97.5521ZM82.1875 77.9453H102.508V75.9453H82.1875V77.9453ZM101.508 76.9453C101.508 81.0742 103.06 84.4957 106.148 87.1282L107.446 85.6062C104.815 83.3636 103.508 80.5039 103.508 76.9453H101.508ZM106.154 87.1334C109.261 89.7391 113.059 91.0234 117.484 91.0234V89.0234C113.473 89.0234 110.145 87.8703 107.439 85.601L106.154 87.1334ZM117.484 91.0234C122.487 91.0234 126.532 89.7088 129.486 86.9585L128.123 85.4947C125.64 87.8069 122.138 89.0234 117.484 89.0234V91.0234ZM129.487 86.958C132.48 84.1678 133.953 80.4918 133.953 76.0312H131.953C131.953 80.0082 130.661 83.1291 128.123 85.4951L129.487 86.958ZM133.953 76.0312C133.953 70.7416 132.493 66.5981 129.407 63.7949C126.339 61.0083 121.835 59.7031 116.078 59.7031V61.7031C121.571 61.7031 125.505 62.9526 128.062 65.2754C130.601 67.5815 131.953 71.1021 131.953 76.0312H133.953ZM116.078 59.7031H105.32V61.7031H116.078V59.7031ZM106.32 60.7031V44.8125H104.32V60.7031H106.32Z" fill="black"/>
</svg>
