<svg width="156" height="108" viewBox="0 0 156 108" fill="none"
    xmlns="http://www.w3.org/2000/svg">
    <path d="M70.8672 62.6719C70.8672 76.8281 67.9375 87.6562 62.0781 95.1562C56.2188 102.656 47.6406 106.406 36.3438 106.406C25.1875 106.406 16.6562 102.727 10.75 95.3672C4.84375 88.0078 1.82031 77.4609 1.67969 63.7266V44.8828C1.67969 30.5859 4.63281 19.7344 10.5391 12.3281C16.4922 4.92188 25.0469 1.21875 36.2031 1.21875C47.3594 1.21875 55.8906 4.89844 61.7969 12.2578C67.7031 19.5703 70.7266 30.0938 70.8672 43.8281V62.6719ZM50.5469 42C50.5469 33.5156 49.375 27.3516 47.0312 23.5078C44.7344 19.6172 41.125 17.6719 36.2031 17.6719C31.4219 17.6719 27.8828 19.5234 25.5859 23.2266C23.3359 26.8828 22.1406 32.625 22 40.4531V65.3438C22 73.6875 23.125 79.8984 25.375 83.9766C27.6719 88.0078 31.3281 90.0234 36.3438 90.0234C41.3125 90.0234 44.8984 88.0781 47.1016 84.1875C49.3047 80.2969 50.4531 74.3438 50.5469 66.3281V42ZM87.6719 54.6562L93.5781 2.625H150.953V19.5703H110.242L107.711 41.5781C112.539 39 117.672 37.7109 123.109 37.7109C132.859 37.7109 140.5 40.7344 146.031 46.7812C151.562 52.8281 154.328 61.2891 154.328 72.1641C154.328 78.7734 152.922 84.7031 150.109 89.9531C147.344 95.1562 143.359 99.2109 138.156 102.117C132.953 104.977 126.812 106.406 119.734 106.406C113.547 106.406 107.805 105.164 102.508 102.68C97.2109 100.148 93.0156 96.6094 89.9219 92.0625C86.875 87.5156 85.2578 82.3359 85.0703 76.5234H105.18C105.602 80.7891 107.078 84.1172 109.609 86.5078C112.188 88.8516 115.539 90.0234 119.664 90.0234C124.258 90.0234 127.797 88.3828 130.281 85.1016C132.766 81.7734 134.008 77.0859 134.008 71.0391C134.008 65.2266 132.578 60.7734 129.719 57.6797C126.859 54.5859 122.805 53.0391 117.555 53.0391C112.727 53.0391 108.812 54.3047 105.812 56.8359L103.844 58.6641L87.6719 54.6562Z" fill="#575756" fill-opacity="0.6"/>
    <path d="M1.67969 63.7266H0.679635L0.67974 63.7368L1.67969 63.7266ZM10.5391 12.3281L9.75963 11.7016L9.75723 11.7046L10.5391 12.3281ZM61.7969 12.2578L61.017 12.8837L61.0189 12.8862L61.7969 12.2578ZM70.8672 43.8281H71.8672L71.8671 43.8179L70.8672 43.8281ZM47.0312 23.5078L46.1701 24.0162L46.1737 24.0223L46.1775 24.0284L47.0312 23.5078ZM25.5859 23.2266L24.7361 22.6995L24.7343 22.7025L25.5859 23.2266ZM22 40.4531L21.0002 40.4352L21 40.4441V40.4531H22ZM25.375 83.9766L24.4993 84.4597L24.5061 84.4716L25.375 83.9766ZM50.5469 66.3281L51.5469 66.3398V66.3281H50.5469ZM69.8672 62.6719C69.8672 76.7092 66.9594 87.2839 61.2901 94.5406L62.8661 95.7719C68.9156 88.0286 71.8672 76.947 71.8672 62.6719H69.8672ZM61.2901 94.5406C55.6567 101.751 47.3972 105.406 36.3438 105.406V107.406C47.884 107.406 56.7808 103.561 62.8661 95.7719L61.2901 94.5406ZM36.3438 105.406C25.4291 105.406 17.2108 101.82 11.5299 94.7413L9.9701 95.9931C16.1017 103.633 24.9459 107.406 36.3438 107.406V105.406ZM11.5299 94.7413C5.81522 87.6206 2.81898 77.3253 2.67964 63.7163L0.67974 63.7368C0.821649 77.5965 3.87228 88.395 9.9701 95.9931L11.5299 94.7413ZM2.67969 63.7266V44.8828H0.679688V63.7266H2.67969ZM2.67969 44.8828C2.67969 30.7023 5.61196 20.1104 11.3209 12.9516L9.75723 11.7046C3.65367 19.3583 0.679688 30.4696 0.679688 44.8828H2.67969ZM11.3185 12.9546C17.0477 5.82693 25.2909 2.21875 36.2031 2.21875V0.21875C24.8029 0.21875 15.9367 4.01682 9.75964 11.7016L11.3185 12.9546ZM36.2031 2.21875C47.1178 2.21875 55.336 5.80508 61.017 12.8837L62.5768 11.6319C56.4452 3.99179 47.6009 0.21875 36.2031 0.21875V2.21875ZM61.0189 12.8862C66.7314 19.9588 69.7279 30.2288 69.8672 43.8384L71.8671 43.8179C71.7252 29.9587 68.6748 19.1818 62.5748 11.6295L61.0189 12.8862ZM69.8672 43.8281V62.6719H71.8672V43.8281H69.8672ZM51.5469 42C51.5469 33.469 50.3768 27.0737 47.885 22.9872L46.1775 24.0284C48.3732 27.6294 49.5469 33.5623 49.5469 42H51.5469ZM47.8924 22.9994C45.397 18.7725 41.4405 16.6719 36.2031 16.6719V18.6719C40.8095 18.6719 44.0718 20.4618 46.1701 24.0162L47.8924 22.9994ZM36.2031 16.6719C31.1161 16.6719 27.2356 18.6696 24.7361 22.6995L26.4357 23.7537C28.53 20.3772 31.7276 18.6719 36.2031 18.6719V16.6719ZM24.7343 22.7025C22.3413 26.5911 21.1417 32.554 21.0002 40.4352L22.9998 40.4711C23.1395 32.696 24.3306 27.1745 26.4376 23.7507L24.7343 22.7025ZM21 40.4531V65.3438H23V40.4531H21ZM21 65.3438C21 73.742 22.1262 80.1582 24.4994 84.4596L26.2506 83.4935C24.1238 79.6387 23 73.633 23 65.3438H21ZM24.5061 84.4716C26.9978 88.8448 31.0044 91.0234 36.3438 91.0234V89.0234C31.6519 89.0234 28.3459 87.1709 26.2439 83.4815L24.5061 84.4716ZM36.3438 91.0234C41.6241 91.0234 45.5684 88.9245 47.9717 84.6802L46.2314 83.6948C44.2285 87.2317 41.0009 89.0234 36.3438 89.0234V91.0234ZM47.9717 84.6802C50.3004 80.5679 51.4524 74.4097 51.5468 66.3398L49.5469 66.3164C49.4538 74.2778 48.309 80.0258 46.2314 83.6948L47.9717 84.6802ZM51.5469 66.3281V42H49.5469V66.3281H51.5469ZM87.6719 54.6562L86.6783 54.5435L86.5792 55.4157L87.4313 55.6269L87.6719 54.6562ZM93.5781 2.625V1.625H92.6852L92.5845 2.51221L93.5781 2.625ZM150.953 2.625H151.953V1.625H150.953V2.625ZM150.953 19.5703V20.5703H151.953V19.5703H150.953ZM110.242 19.5703V18.5703H109.351L109.249 19.4561L110.242 19.5703ZM107.711 41.5781L106.717 41.4639L106.5 43.3586L108.182 42.4602L107.711 41.5781ZM150.109 89.9531L149.228 89.4809L149.226 89.4838L150.109 89.9531ZM138.156 102.117L138.638 102.994L138.644 102.99L138.156 102.117ZM102.508 102.68L102.077 103.582L102.083 103.585L102.508 102.68ZM89.9219 92.0625L89.0911 92.6192L89.0951 92.625L89.9219 92.0625ZM85.0703 76.5234V75.5234H84.0375L84.0708 76.5557L85.0703 76.5234ZM105.18 76.5234L106.175 76.425L106.086 75.5234H105.18V76.5234ZM109.609 86.5078L108.923 87.2348L108.93 87.2414L108.937 87.2477L109.609 86.5078ZM130.281 85.1016L131.079 85.7052L131.083 85.6998L130.281 85.1016ZM105.812 56.8359L105.168 56.0716L105.149 56.087L105.132 56.1031L105.812 56.8359ZM103.844 58.6641L103.603 59.6347L104.128 59.7648L104.524 59.3969L103.844 58.6641ZM88.6655 54.769L94.5717 2.73779L92.5845 2.51221L86.6783 54.5435L88.6655 54.769ZM93.5781 3.625H150.953V1.625H93.5781V3.625ZM149.953 2.625V19.5703H151.953V2.625H149.953ZM150.953 18.5703H110.242V20.5703H150.953V18.5703ZM109.249 19.4561L106.717 41.4639L108.704 41.6924L111.236 19.6846L109.249 19.4561ZM108.182 42.4602C112.866 39.959 117.837 38.7109 123.109 38.7109V36.7109C117.506 36.7109 112.212 38.041 107.24 40.696L108.182 42.4602ZM123.109 38.7109C132.637 38.7109 139.987 41.6557 145.293 47.4562L146.769 46.1063C141.013 39.8131 133.082 36.7109 123.109 36.7109V38.7109ZM145.293 47.4562C150.607 53.2653 153.328 61.4555 153.328 72.1641H155.328C155.328 61.1227 152.518 52.391 146.769 46.1063L145.293 47.4562ZM153.328 72.1641C153.328 78.6271 151.954 84.3915 149.228 89.4809L150.991 90.4253C153.889 85.0147 155.328 78.9198 155.328 72.1641H153.328ZM149.226 89.4838C146.552 94.5151 142.706 98.4305 137.669 101.244L138.644 102.99C144.013 99.9914 148.135 95.7974 150.992 90.4225L149.226 89.4838ZM137.675 101.241C132.645 104.005 126.676 105.406 119.734 105.406V107.406C126.949 107.406 133.261 105.948 138.638 102.994L137.675 101.241ZM119.734 105.406C113.685 105.406 108.089 104.193 102.932 101.774L102.083 103.585C107.521 106.135 113.409 107.406 119.734 107.406V105.406ZM102.939 101.777C97.7905 99.3171 93.7362 95.8907 90.7486 91.5L89.0951 92.625C92.2951 97.328 96.6313 100.98 102.077 103.582L102.939 101.777ZM90.7526 91.5058C87.8166 87.1244 86.2516 82.1288 86.0698 76.4912L84.0708 76.5557C84.264 82.5431 85.9334 87.9069 89.0911 92.6192L90.7526 91.5058ZM85.0703 77.5234H105.18V75.5234H85.0703V77.5234ZM104.185 76.6219C104.624 81.0697 106.178 84.6428 108.923 87.2348L110.296 85.7808C107.978 83.5915 106.579 80.5084 106.175 76.425L104.185 76.6219ZM108.937 87.2477C111.732 89.7888 115.339 91.0234 119.664 91.0234V89.0234C115.739 89.0234 112.643 87.9143 110.282 85.7679L108.937 87.2477ZM119.664 91.0234C124.529 91.0234 128.381 89.2676 131.079 85.7052L129.484 84.4979C127.212 87.498 123.986 89.0234 119.664 89.0234V91.0234ZM131.083 85.6998C133.743 82.136 135.008 77.2071 135.008 71.0391H133.008C133.008 76.9648 131.788 81.4109 129.48 84.5034L131.083 85.6998ZM135.008 71.0391C135.008 65.0713 133.539 60.3398 130.453 57.0009L128.984 58.3584C131.617 61.2071 133.008 65.3818 133.008 71.0391H135.008ZM130.453 57.0009C127.36 53.654 123.01 52.0391 117.555 52.0391V54.0391C122.599 54.0391 126.359 55.5179 128.984 58.3584L130.453 57.0009ZM117.555 52.0391C112.547 52.0391 108.387 53.3555 105.168 56.0716L106.457 57.6002C109.238 55.2539 112.906 54.0391 117.555 54.0391V52.0391ZM105.132 56.1031L103.163 57.9313L104.524 59.3969L106.493 57.5687L105.132 56.1031ZM104.084 57.6934L87.9124 53.6856L87.4313 55.6269L103.603 59.6347L104.084 57.6934Z" fill="black"/>
</svg>
