<svg width="157" height="108" viewBox="0 0 157 108" fill="none"
    xmlns="http://www.w3.org/2000/svg">
    <path d="M70.8672 62.6719C70.8672 76.8281 67.9375 87.6562 62.0781 95.1562C56.2188 102.656 47.6406 106.406 36.3438 106.406C25.1875 106.406 16.6562 102.727 10.75 95.3672C4.84375 88.0078 1.82031 77.4609 1.67969 63.7266V44.8828C1.67969 30.5859 4.63281 19.7344 10.5391 12.3281C16.4922 4.92188 25.0469 1.21875 36.2031 1.21875C47.3594 1.21875 55.8906 4.89844 61.7969 12.2578C67.7031 19.5703 70.7266 30.0938 70.8672 43.8281V62.6719ZM50.5469 42C50.5469 33.5156 49.375 27.3516 47.0312 23.5078C44.7344 19.6172 41.125 17.6719 36.2031 17.6719C31.4219 17.6719 27.8828 19.5234 25.5859 23.2266C23.3359 26.8828 22.1406 32.625 22 40.4531V65.3438C22 73.6875 23.125 79.8984 25.375 83.9766C27.6719 88.0078 31.3281 90.0234 36.3438 90.0234C41.3125 90.0234 44.8984 88.0781 47.1016 84.1875C49.3047 80.2969 50.4531 74.3438 50.5469 66.3281V42ZM139.773 1.57031V18.3047H137.805C128.617 18.4453 121.211 20.8359 115.586 25.4766C110.008 30.1172 106.656 36.5625 105.531 44.8125C110.969 39.2812 117.836 36.5156 126.133 36.5156C135.039 36.5156 142.117 39.7031 147.367 46.0781C152.617 52.4531 155.242 60.8438 155.242 71.25C155.242 77.9062 153.789 83.9297 150.883 89.3203C148.023 94.7109 143.945 98.9062 138.648 101.906C133.398 104.906 127.445 106.406 120.789 106.406C110.008 106.406 101.289 102.656 94.6328 95.1562C88.0234 87.6562 84.7188 77.6484 84.7188 65.1328V57.8203C84.7188 46.7109 86.8047 36.9141 90.9766 28.4297C95.1953 19.8984 101.219 13.3125 109.047 8.67188C116.922 3.98437 126.039 1.61719 136.398 1.57031H139.773ZM119.945 52.8281C116.664 52.8281 113.688 53.6953 111.016 55.4297C108.344 57.1172 106.375 59.3672 105.109 62.1797V68.3672C105.109 75.1641 106.445 80.4844 109.117 84.3281C111.789 88.125 115.539 90.0234 120.367 90.0234C124.727 90.0234 128.242 88.3125 130.914 84.8906C133.633 81.4219 134.992 76.9453 134.992 71.4609C134.992 65.8828 133.633 61.3828 130.914 57.9609C128.195 54.5391 124.539 52.8281 119.945 52.8281Z" fill="#575756" fill-opacity="0.6"/>
    <path d="M1.67969 63.7266H0.679635L0.67974 63.7368L1.67969 63.7266ZM10.5391 12.3281L9.75963 11.7016L9.75723 11.7046L10.5391 12.3281ZM61.7969 12.2578L61.017 12.8837L61.0189 12.8862L61.7969 12.2578ZM70.8672 43.8281H71.8672L71.8671 43.8179L70.8672 43.8281ZM47.0312 23.5078L46.1701 24.0162L46.1737 24.0223L46.1775 24.0284L47.0312 23.5078ZM25.5859 23.2266L24.7361 22.6995L24.7343 22.7025L25.5859 23.2266ZM22 40.4531L21.0002 40.4352L21 40.4441V40.4531H22ZM25.375 83.9766L24.4993 84.4597L24.5061 84.4716L25.375 83.9766ZM50.5469 66.3281L51.5469 66.3398V66.3281H50.5469ZM69.8672 62.6719C69.8672 76.7092 66.9594 87.2839 61.2901 94.5406L62.8661 95.7719C68.9156 88.0286 71.8672 76.947 71.8672 62.6719H69.8672ZM61.2901 94.5406C55.6567 101.751 47.3972 105.406 36.3438 105.406V107.406C47.884 107.406 56.7808 103.561 62.8661 95.7719L61.2901 94.5406ZM36.3438 105.406C25.4291 105.406 17.2108 101.82 11.5299 94.7413L9.9701 95.9931C16.1017 103.633 24.9459 107.406 36.3438 107.406V105.406ZM11.5299 94.7413C5.81522 87.6206 2.81898 77.3253 2.67964 63.7163L0.67974 63.7368C0.821649 77.5965 3.87228 88.395 9.9701 95.9931L11.5299 94.7413ZM2.67969 63.7266V44.8828H0.679688V63.7266H2.67969ZM2.67969 44.8828C2.67969 30.7023 5.61196 20.1104 11.3209 12.9516L9.75723 11.7046C3.65367 19.3583 0.679688 30.4696 0.679688 44.8828H2.67969ZM11.3185 12.9546C17.0477 5.82693 25.2909 2.21875 36.2031 2.21875V0.21875C24.8029 0.21875 15.9367 4.01682 9.75964 11.7016L11.3185 12.9546ZM36.2031 2.21875C47.1178 2.21875 55.336 5.80508 61.017 12.8837L62.5768 11.6319C56.4452 3.99179 47.6009 0.21875 36.2031 0.21875V2.21875ZM61.0189 12.8862C66.7314 19.9588 69.7279 30.2288 69.8672 43.8384L71.8671 43.8179C71.7252 29.9587 68.6748 19.1818 62.5748 11.6295L61.0189 12.8862ZM69.8672 43.8281V62.6719H71.8672V43.8281H69.8672ZM51.5469 42C51.5469 33.469 50.3768 27.0737 47.885 22.9872L46.1775 24.0284C48.3732 27.6294 49.5469 33.5623 49.5469 42H51.5469ZM47.8924 22.9994C45.397 18.7725 41.4405 16.6719 36.2031 16.6719V18.6719C40.8095 18.6719 44.0718 20.4618 46.1701 24.0162L47.8924 22.9994ZM36.2031 16.6719C31.1161 16.6719 27.2356 18.6696 24.7361 22.6995L26.4357 23.7537C28.53 20.3772 31.7276 18.6719 36.2031 18.6719V16.6719ZM24.7343 22.7025C22.3413 26.5911 21.1417 32.554 21.0002 40.4352L22.9998 40.4711C23.1395 32.696 24.3306 27.1745 26.4376 23.7507L24.7343 22.7025ZM21 40.4531V65.3438H23V40.4531H21ZM21 65.3438C21 73.742 22.1262 80.1582 24.4994 84.4596L26.2506 83.4935C24.1238 79.6387 23 73.633 23 65.3438H21ZM24.5061 84.4716C26.9978 88.8448 31.0044 91.0234 36.3438 91.0234V89.0234C31.6519 89.0234 28.3459 87.1709 26.2439 83.4815L24.5061 84.4716ZM36.3438 91.0234C41.6241 91.0234 45.5684 88.9245 47.9717 84.6802L46.2314 83.6948C44.2285 87.2317 41.0009 89.0234 36.3438 89.0234V91.0234ZM47.9717 84.6802C50.3004 80.5679 51.4524 74.4097 51.5468 66.3398L49.5469 66.3164C49.4538 74.2778 48.309 80.0258 46.2314 83.6948L47.9717 84.6802ZM51.5469 66.3281V42H49.5469V66.3281H51.5469ZM139.773 1.57031H140.773V0.570312H139.773V1.57031ZM139.773 18.3047V19.3047H140.773V18.3047H139.773ZM137.805 18.3047V17.3047H137.797L137.789 17.3048L137.805 18.3047ZM115.586 25.4766L114.95 24.7052L114.946 24.7078L115.586 25.4766ZM105.531 44.8125L104.54 44.6774L104.134 47.6607L106.244 45.5135L105.531 44.8125ZM150.883 89.3203L150.003 88.8457L149.999 88.8517L150.883 89.3203ZM138.648 101.906L138.156 101.036L138.152 101.038L138.648 101.906ZM94.6328 95.1562L93.8826 95.8174L93.8849 95.82L94.6328 95.1562ZM90.9766 28.4297L90.0802 27.9864L90.0792 27.9884L90.9766 28.4297ZM109.047 8.67188L109.557 9.53209L109.558 9.53117L109.047 8.67188ZM136.398 1.57031V0.570303L136.394 0.570322L136.398 1.57031ZM111.016 55.4297L111.55 56.2752L111.56 56.2685L111.016 55.4297ZM105.109 62.1797L104.197 61.7693L104.109 61.965V62.1797H105.109ZM109.117 84.3281L108.296 84.8989L108.299 84.9036L109.117 84.3281ZM130.914 84.8906L130.127 84.2737L130.126 84.2752L130.914 84.8906ZM138.773 1.57031V18.3047H140.773V1.57031H138.773ZM139.773 17.3047H137.805V19.3047H139.773V17.3047ZM137.789 17.3048C128.435 17.448 120.791 19.8859 114.95 24.7052L116.222 26.2479C121.631 21.7859 128.799 19.4426 137.82 19.3046L137.789 17.3048ZM114.946 24.7078C109.148 29.5319 105.694 36.2188 104.54 44.6774L106.522 44.9476C107.619 36.9062 110.868 30.7025 116.225 26.2453L114.946 24.7078ZM106.244 45.5135C111.48 40.1878 118.083 37.5156 126.133 37.5156V35.5156C117.589 35.5156 110.458 38.3747 104.818 44.1115L106.244 45.5135ZM126.133 37.5156C134.767 37.5156 141.552 40.5894 146.595 46.7138L148.139 45.4424C142.683 38.8169 135.311 35.5156 126.133 35.5156V37.5156ZM146.595 46.7138C151.663 52.8673 154.242 61.0139 154.242 71.25H156.242C156.242 60.6736 153.572 52.039 148.139 45.4424L146.595 46.7138ZM154.242 71.25C154.242 77.7553 152.824 83.6134 150.003 88.8458L151.763 89.7949C154.755 84.246 156.242 78.0572 156.242 71.25H154.242ZM149.999 88.8517C147.229 94.0744 143.286 98.1303 138.156 101.036L139.141 102.776C144.604 99.6822 148.818 95.3474 151.766 89.7889L149.999 88.8517ZM138.152 101.038C133.068 103.943 127.289 105.406 120.789 105.406V107.406C127.601 107.406 133.729 105.869 139.145 102.774L138.152 101.038ZM120.789 105.406C110.27 105.406 101.832 101.761 95.3807 94.4925L93.8849 95.82C100.746 103.551 109.746 107.406 120.789 107.406V105.406ZM95.3831 94.4951C88.9722 87.2204 85.7188 77.4686 85.7188 65.1328H83.7188C83.7188 77.8283 87.0747 88.0921 93.8826 95.8174L95.3831 94.4951ZM85.7188 65.1328V57.8203H83.7188V65.1328H85.7188ZM85.7188 57.8203C85.7188 46.8373 87.7804 37.196 91.8739 28.8709L90.0792 27.9884C85.8289 36.6322 83.7188 46.5846 83.7188 57.8203H85.7188ZM91.8729 28.873C96.0101 20.5068 101.903 14.0694 109.557 9.53208L108.537 7.81167C100.535 12.5556 94.3805 19.2901 90.0802 27.9864L91.8729 28.873ZM109.558 9.53117C117.261 4.94641 126.198 2.61648 136.403 2.5703L136.394 0.570322C125.88 0.617897 116.583 3.02234 108.535 7.81258L109.558 9.53117ZM136.398 2.57031H139.773V0.570312H136.398V2.57031ZM119.945 51.8281C116.477 51.8281 113.31 52.748 110.471 54.5909L111.56 56.2685C114.065 54.6426 116.851 53.8281 119.945 53.8281V51.8281ZM110.482 54.5842C107.648 56.3738 105.546 58.7732 104.197 61.7693L106.021 62.59C107.204 59.9612 109.039 57.8606 111.55 56.2752L110.482 54.5842ZM104.109 62.1797V68.3672H106.109V62.1797H104.109ZM104.109 68.3672C104.109 75.2801 105.466 80.8275 108.296 84.8989L109.938 83.7574C107.425 80.1412 106.109 75.048 106.109 68.3672H104.109ZM108.299 84.9036C111.167 88.979 115.229 91.0234 120.367 91.0234V89.0234C115.849 89.0234 112.411 87.271 109.935 83.7526L108.299 84.9036ZM120.367 91.0234C125.033 91.0234 128.84 89.1718 131.702 85.5061L130.126 84.2752C127.644 87.4532 124.42 89.0234 120.367 89.0234V91.0234ZM131.701 85.5075C134.589 81.8233 135.992 77.1131 135.992 71.4609H133.992C133.992 76.7775 132.677 81.0205 130.127 84.2737L131.701 85.5075ZM135.992 71.4609C135.992 65.7203 134.591 60.9816 131.697 57.3389L130.131 58.583C132.674 61.784 133.992 66.0454 133.992 71.4609H135.992ZM131.697 57.3389C128.778 53.6645 124.826 51.8281 119.945 51.8281V53.8281C124.252 53.8281 127.613 55.4137 130.131 58.583L131.697 57.3389Z" fill="black"/>
</svg>
