<svg width="156" height="108" viewBox="0 0 156 108" fill="none"
    xmlns="http://www.w3.org/2000/svg">
    <path d="M70.8672 62.6719C70.8672 76.8281 67.9375 87.6562 62.0781 95.1562C56.2188 102.656 47.6406 106.406 36.3438 106.406C25.1875 106.406 16.6562 102.727 10.75 95.3672C4.84375 88.0078 1.82031 77.4609 1.67969 63.7266V44.8828C1.67969 30.5859 4.63281 19.7344 10.5391 12.3281C16.4922 4.92188 25.0469 1.21875 36.2031 1.21875C47.3594 1.21875 55.8906 4.89844 61.7969 12.2578C67.7031 19.5703 70.7266 30.0938 70.8672 43.8281V62.6719ZM50.5469 42C50.5469 33.5156 49.375 27.3516 47.0312 23.5078C44.7344 19.6172 41.125 17.6719 36.2031 17.6719C31.4219 17.6719 27.8828 19.5234 25.5859 23.2266C23.3359 26.8828 22.1406 32.625 22 40.4531V65.3438C22 73.6875 23.125 79.8984 25.375 83.9766C27.6719 88.0078 31.3281 90.0234 36.3438 90.0234C41.3125 90.0234 44.8984 88.0781 47.1016 84.1875C49.3047 80.2969 50.4531 74.3438 50.5469 66.3281V42ZM154.258 14.0156L114.672 105H93.2266L132.883 19.0781H81.9766V2.625H154.258V14.0156Z" fill="#575756" fill-opacity="0.6"/>
    <path d="M1.67969 63.7266H0.679635L0.67974 63.7368L1.67969 63.7266ZM10.5391 12.3281L9.75963 11.7016L9.75723 11.7046L10.5391 12.3281ZM61.7969 12.2578L61.017 12.8837L61.0189 12.8862L61.7969 12.2578ZM70.8672 43.8281H71.8672L71.8671 43.8179L70.8672 43.8281ZM47.0312 23.5078L46.1701 24.0162L46.1737 24.0223L46.1775 24.0284L47.0312 23.5078ZM25.5859 23.2266L24.7361 22.6995L24.7343 22.7025L25.5859 23.2266ZM22 40.4531L21.0002 40.4352L21 40.4441V40.4531H22ZM25.375 83.9766L24.4993 84.4597L24.5061 84.4716L25.375 83.9766ZM50.5469 66.3281L51.5469 66.3398V66.3281H50.5469ZM69.8672 62.6719C69.8672 76.7092 66.9594 87.2839 61.2901 94.5406L62.8661 95.7719C68.9156 88.0286 71.8672 76.947 71.8672 62.6719H69.8672ZM61.2901 94.5406C55.6567 101.751 47.3972 105.406 36.3438 105.406V107.406C47.884 107.406 56.7808 103.561 62.8661 95.7719L61.2901 94.5406ZM36.3438 105.406C25.4291 105.406 17.2108 101.82 11.5299 94.7413L9.9701 95.9931C16.1017 103.633 24.9459 107.406 36.3438 107.406V105.406ZM11.5299 94.7413C5.81522 87.6206 2.81898 77.3253 2.67964 63.7163L0.67974 63.7368C0.821649 77.5965 3.87228 88.395 9.9701 95.9931L11.5299 94.7413ZM2.67969 63.7266V44.8828H0.679688V63.7266H2.67969ZM2.67969 44.8828C2.67969 30.7023 5.61196 20.1104 11.3209 12.9516L9.75723 11.7046C3.65367 19.3583 0.679688 30.4696 0.679688 44.8828H2.67969ZM11.3185 12.9546C17.0477 5.82693 25.2909 2.21875 36.2031 2.21875V0.21875C24.8029 0.21875 15.9367 4.01682 9.75964 11.7016L11.3185 12.9546ZM36.2031 2.21875C47.1178 2.21875 55.336 5.80508 61.017 12.8837L62.5768 11.6319C56.4452 3.99179 47.6009 0.21875 36.2031 0.21875V2.21875ZM61.0189 12.8862C66.7314 19.9588 69.7279 30.2288 69.8672 43.8384L71.8671 43.8179C71.7252 29.9587 68.6748 19.1818 62.5748 11.6295L61.0189 12.8862ZM69.8672 43.8281V62.6719H71.8672V43.8281H69.8672ZM51.5469 42C51.5469 33.469 50.3768 27.0737 47.885 22.9872L46.1775 24.0284C48.3732 27.6294 49.5469 33.5623 49.5469 42H51.5469ZM47.8924 22.9994C45.397 18.7725 41.4405 16.6719 36.2031 16.6719V18.6719C40.8095 18.6719 44.0718 20.4618 46.1701 24.0162L47.8924 22.9994ZM36.2031 16.6719C31.1161 16.6719 27.2356 18.6696 24.7361 22.6995L26.4357 23.7537C28.53 20.3772 31.7276 18.6719 36.2031 18.6719V16.6719ZM24.7343 22.7025C22.3413 26.5911 21.1417 32.554 21.0002 40.4352L22.9998 40.4711C23.1395 32.696 24.3306 27.1745 26.4376 23.7507L24.7343 22.7025ZM21 40.4531V65.3438H23V40.4531H21ZM21 65.3438C21 73.742 22.1262 80.1582 24.4994 84.4596L26.2506 83.4935C24.1238 79.6387 23 73.633 23 65.3438H21ZM24.5061 84.4716C26.9978 88.8448 31.0044 91.0234 36.3438 91.0234V89.0234C31.6519 89.0234 28.3459 87.1709 26.2439 83.4815L24.5061 84.4716ZM36.3438 91.0234C41.6241 91.0234 45.5684 88.9245 47.9717 84.6802L46.2314 83.6948C44.2285 87.2317 41.0009 89.0234 36.3438 89.0234V91.0234ZM47.9717 84.6802C50.3004 80.5679 51.4524 74.4097 51.5468 66.3398L49.5469 66.3164C49.4538 74.2778 48.309 80.0258 46.2314 83.6948L47.9717 84.6802ZM51.5469 66.3281V42H49.5469V66.3281H51.5469ZM154.258 14.0156L155.175 14.4146L155.258 14.2237V14.0156H154.258ZM114.672 105V106H115.327L115.589 105.399L114.672 105ZM93.2266 105L92.3186 104.581L91.6637 106H93.2266V105ZM132.883 19.0781L133.791 19.4972L134.446 18.0781H132.883V19.0781ZM81.9766 19.0781H80.9766V20.0781H81.9766V19.0781ZM81.9766 2.625V1.625H80.9766V2.625H81.9766ZM154.258 2.625H155.258V1.625H154.258V2.625ZM153.341 13.6167L113.755 104.601L115.589 105.399L155.175 14.4146L153.341 13.6167ZM114.672 104H93.2266V106H114.672V104ZM94.1345 105.419L133.791 19.4972L131.975 18.6591L92.3186 104.581L94.1345 105.419ZM132.883 18.0781H81.9766V20.0781H132.883V18.0781ZM82.9766 19.0781V2.625H80.9766V19.0781H82.9766ZM81.9766 3.625H154.258V1.625H81.9766V3.625ZM153.258 2.625V14.0156H155.258V2.625H153.258Z" fill="black"/>
</svg>
